<svg width="66" height="80" viewBox="0 0 66 80" fill="none" xmlns="http://www.w3.org/2000/svg">
<g id="Group">
<path id="Vector" d="M65.3176 11.4843C65.1875 11.3824 65.0361 11.3111 64.8747 11.2756C64.7133 11.2401 64.546 11.2414 64.3851 11.2793C61.2462 12.0284 57.9881 12.1346 54.8071 11.5915C51.626 11.0484 48.5877 9.86735 45.8751 8.11933L33.5945 0.174953C33.4175 0.0607451 33.2113 0 33.0007 0C32.7901 0 32.584 0.0607451 32.407 0.174953L20.1282 8.11933C17.4152 9.8678 14.3764 11.0491 11.1948 11.5922C8.01313 12.1353 4.75451 12.0289 1.6151 11.2793C1.4544 11.2408 1.28705 11.2392 1.12564 11.2746C0.964217 11.31 0.812913 11.3815 0.683075 11.4838C0.553238 11.586 0.44824 11.7163 0.375959 11.8649C0.303678 12.0135 0.265991 12.1766 0.265727 12.3418V57.0537C0.254668 60.0336 1.14563 62.9472 2.82148 65.4112C4.49732 67.8753 6.8796 69.7746 9.6551 70.8593L32.5982 79.9218C32.8563 80.0243 33.1439 80.0243 33.402 79.9218L56.3451 70.8593C59.1206 69.7746 61.5029 67.8753 63.1787 65.4112C64.8546 62.9472 65.7455 60.0336 65.7345 57.0537V12.3431C65.7345 12.1777 65.697 12.0145 65.6248 11.8658C65.5526 11.717 65.4475 11.5866 65.3176 11.4843ZM63.547 57.0537C63.5564 59.5946 62.7966 62.0788 61.3676 64.1798C59.9387 66.2808 57.9073 67.9001 55.5407 68.825L33.0001 77.7293L10.4595 68.825C8.09287 67.9001 6.06154 66.2808 4.63255 64.1798C3.20356 62.0788 2.44383 59.5946 2.45323 57.0537V13.6931C8.98763 14.8903 15.7327 13.5539 21.317 9.95558L33.0001 2.3962L44.6832 9.9587C50.2676 13.5567 57.0126 14.8931 63.547 13.6962V57.0537Z" fill="#F47B3D"/>
<path id="Vector_2" d="M43.155 12.3156L33.5925 6.12808C33.4155 6.01387 33.2094 5.95312 32.9987 5.95312C32.7881 5.95312 32.582 6.01387 32.405 6.12808L22.8425 12.3156C17.9503 15.482 12.2127 17.0901 6.38749 16.9275C6.0924 16.9228 5.80746 17.0351 5.59499 17.24C5.4901 17.3417 5.40673 17.4636 5.34983 17.5982C5.29292 17.7328 5.26365 17.8775 5.26374 18.0237V57.0556C5.25648 59.0317 5.84738 60.9638 6.95878 62.5978C8.07017 64.2318 9.65002 65.4913 11.4906 66.2106L32.5962 74.5487C32.8545 74.6504 33.1417 74.6504 33.4 74.5487L54.5056 66.2106C56.3462 65.4913 57.9261 64.2318 59.0375 62.5978C60.1488 60.9638 60.7397 59.0317 60.7325 57.0556V18.025C60.7326 17.8788 60.7033 17.7341 60.6464 17.5995C60.5895 17.4648 60.5061 17.343 60.4012 17.2412C60.2963 17.1394 60.1723 17.0593 60.0362 17.0057C59.9002 16.9521 59.7549 16.9259 59.6087 16.9287C53.7835 17.093 48.0457 15.4843 43.155 12.3156ZM58.5469 57.0525C58.5524 58.5894 58.0928 60.0921 57.2284 61.363C56.364 62.6339 55.1353 63.6135 53.7037 64.1731L33 72.3556L12.2962 64.1762C10.8646 63.6168 9.63579 62.6372 8.77136 61.3663C7.90693 60.0954 7.44737 58.5926 7.45311 57.0556V19.1281C13.3404 19.0811 19.0921 17.3556 24.0331 14.1543L33 8.35308L41.9669 14.1556C46.908 17.3566 52.6597 19.0815 58.5469 19.1281V57.0525Z" fill="#F47B3D"/>
<path id="Vector_3" d="M33.9562 21.9261C33.8615 21.7555 33.7229 21.6134 33.5548 21.5144C33.3866 21.4155 33.1951 21.3633 33 21.3633C32.8049 21.3633 32.6133 21.4155 32.4452 21.5144C32.2771 21.6134 32.1384 21.7555 32.0437 21.9261L26.1875 32.4774L14.3431 34.7861C14.1517 34.8235 13.9737 34.9115 13.8277 35.0408C13.6817 35.1702 13.573 35.3362 13.5127 35.5217C13.4525 35.7072 13.4429 35.9055 13.4851 36.0959C13.5272 36.2864 13.6196 36.4621 13.7525 36.6049L21.9781 45.4342L20.5131 57.413C20.4893 57.6068 20.5177 57.8034 20.5955 57.9824C20.6733 58.1615 20.7976 58.3165 20.9555 58.4313C21.1134 58.5461 21.2992 58.6165 21.4935 58.6353C21.6878 58.654 21.8837 58.6204 22.0606 58.538L33 53.4424L43.9375 58.5374C44.1144 58.6197 44.3102 58.6531 44.5044 58.6343C44.6986 58.6154 44.8843 58.545 45.0421 58.4302C45.1999 58.3154 45.3241 58.1605 45.4019 57.9815C45.4797 57.8026 45.5081 57.6061 45.4844 57.4124L44.0219 45.4342L52.25 36.6049C52.3829 36.4621 52.4752 36.2864 52.5174 36.0959C52.5596 35.9055 52.55 35.7072 52.4898 35.5217C52.4295 35.3362 52.3208 35.1702 52.1747 35.0408C52.0287 34.9115 51.8508 34.8235 51.6594 34.7861L39.8125 32.4774L33.9562 21.9261ZM42.0744 44.3136C41.9655 44.4302 41.8834 44.5693 41.834 44.721C41.7846 44.8727 41.7689 45.0334 41.7881 45.1917L43.0762 55.7192L33.4619 51.2442C33.3172 51.1767 33.1596 51.1417 33 51.1417C32.8404 51.1417 32.6827 51.1767 32.5381 51.2442L22.9237 55.7217L24.2112 45.1942C24.2307 45.0359 24.2152 44.8752 24.1659 44.7235C24.1165 44.5718 24.0345 44.4327 23.9256 44.3161L16.6969 36.5561L27.1069 34.5274C27.264 34.4972 27.4126 34.4329 27.5421 34.339C27.6717 34.2452 27.7792 34.1241 27.8569 33.9842L33 24.7105L38.1462 33.9842C38.2239 34.1241 38.3314 34.2452 38.461 34.339C38.5905 34.4329 38.7391 34.4972 38.8962 34.5274L49.3062 36.5561L42.0744 44.3136Z" fill="#F47B3D"/>
<path id="Vector_4" d="M33.9563 32.2308C33.8616 32.0602 33.723 31.9181 33.5549 31.8191C33.3867 31.7202 33.1952 31.668 33.0001 31.668C32.805 31.668 32.6134 31.7202 32.4453 31.8191C32.2771 31.9181 32.1385 32.0602 32.0438 32.2308L29.4301 36.9395L24.1438 37.9708C23.9521 38.0079 23.7738 38.0957 23.6275 38.225C23.4812 38.3543 23.3722 38.5205 23.3118 38.7062C23.2515 38.8919 23.242 39.0904 23.2843 39.281C23.3266 39.4717 23.4193 39.6475 23.5526 39.7902L27.2244 43.7277L26.5701 49.077C26.5462 49.2708 26.5747 49.4674 26.6525 49.6465C26.7303 49.8255 26.8546 49.9805 27.0125 50.0953C27.1704 50.2101 27.3561 50.2805 27.5505 50.2993C27.7448 50.3181 27.9406 50.2845 28.1176 50.202L33.0001 47.9277L37.8826 50.2014C38.0595 50.2839 38.2553 50.3175 38.4497 50.2987C38.644 50.2799 38.8297 50.2095 38.9876 50.0947C39.1456 49.9799 39.2699 49.8249 39.3477 49.6459C39.4255 49.4668 39.4539 49.2702 39.4301 49.0764L38.7757 43.7302L42.4476 39.7927C42.5806 39.6499 42.6731 39.4741 42.7153 39.2835C42.7575 39.0929 42.748 38.8945 42.6877 38.7089C42.6273 38.5232 42.5184 38.3571 42.3722 38.2278C42.2261 38.0984 42.0479 38.0106 41.8563 37.9733L36.5701 36.9395L33.9563 32.2308ZM36.8282 42.6127C36.7197 42.7289 36.6379 42.8674 36.5886 43.0186C36.5393 43.1697 36.5236 43.3298 36.5426 43.4877L37.0194 47.3833L33.4619 45.7264C33.3173 45.6589 33.1597 45.6239 33.0001 45.6239C32.8405 45.6239 32.6828 45.6589 32.5382 45.7264L28.9807 47.3833L29.4569 43.4877C29.4759 43.3299 29.4603 43.1698 29.4111 43.0187C29.3618 42.8676 29.2802 42.729 29.1719 42.6127L26.4963 39.7377L30.3488 38.9877C30.5059 38.9575 30.6544 38.8933 30.784 38.7996C30.9135 38.7058 31.021 38.5849 31.0988 38.4452L33.0001 35.0158L34.9044 38.4477C34.9822 38.5874 35.0897 38.7083 35.2193 38.8021C35.3489 38.8958 35.4974 38.96 35.6544 38.9902L39.5069 39.7402L36.8282 42.6127Z" fill="#F47B3D"/>
</g>
</svg>
