<svg width="68" height="80" viewBox="0 0 68 80" fill="none" xmlns="http://www.w3.org/2000/svg">
<g id="Group">
<path id="Vector" d="M67.7663 67.5781L59.7619 53.7137C63.665 48.8564 66.1154 42.9945 66.8303 36.8044C67.5451 30.6143 66.4954 24.3482 63.8022 18.7291C61.1089 13.11 56.882 8.36672 51.6089 5.04662C46.3358 1.72652 40.2316 -0.0351562 34.0003 -0.0351562C27.7691 -0.0351563 21.6648 1.72652 16.3918 5.04662C11.1187 8.36672 6.89172 13.11 4.19849 18.7291C1.50526 24.3482 0.45553 30.6143 1.17041 36.8044C1.88528 42.9945 4.33564 48.8564 8.23876 53.7137L0.233763 67.5781C0.0888251 67.8294 0.0496081 68.128 0.124732 68.4082C0.199856 68.6884 0.383172 68.9273 0.634388 69.0724L4.55814 71.3381C4.68248 71.41 4.8198 71.4568 4.96223 71.4755C5.10467 71.4943 5.2494 71.4848 5.38814 71.4475L12.8694 69.4425L14.8738 76.9237C14.9494 77.2038 15.1327 77.4426 15.3838 77.5881L19.3081 79.8537C19.5594 79.9986 19.8578 80.0378 20.138 79.9627C20.4181 79.8876 20.6569 79.7043 20.8019 79.4531L28.7569 65.6743C32.2298 66.2352 35.7702 66.2352 39.2431 65.6743L47.1981 79.4531C47.3433 79.7043 47.5822 79.8876 47.8624 79.9627C48.1426 80.0379 48.4412 79.9986 48.6925 79.8537L52.6163 77.5881C52.8673 77.4426 53.0507 77.2038 53.1263 76.9237L55.1306 69.4425L62.6113 71.4475C62.75 71.4848 62.8947 71.4943 63.0372 71.4755C63.1796 71.4568 63.3169 71.41 63.4413 71.3381L67.3663 69.0724C67.6174 68.9272 67.8006 68.6883 67.8756 68.4081C67.9506 68.1278 67.9113 67.8293 67.7663 67.5781ZM26.4894 65.2268L19.4544 77.4143L16.87 75.9225L14.6994 67.8224C14.6623 67.6837 14.5983 67.5536 14.5109 67.4396C14.4235 67.3256 14.3144 67.2299 14.19 67.1581C14.0656 67.0863 13.9283 67.0397 13.7859 67.0211C13.6434 67.0024 13.4987 67.012 13.36 67.0493L5.25939 69.2193L2.67501 67.7268L9.74314 55.4825C14.2329 60.3225 20.063 63.715 26.4894 65.2268ZM28.3119 63.3731C20.5414 61.9052 13.6351 57.5002 9.02783 51.0731C4.42052 44.646 2.46637 36.691 3.57136 28.8607C4.67635 21.0304 8.75554 13.9268 14.9615 9.0256C21.1674 4.12445 29.0229 1.80256 36.8962 2.5423C44.7694 3.28203 52.055 7.02653 57.2394 12.9979C62.4237 18.9692 65.1084 26.7083 64.7355 34.6074C64.3626 42.5065 60.9609 49.9583 55.2371 55.4147C49.5132 60.8711 41.9073 63.9127 33.9994 63.9075C32.0913 63.9057 30.1875 63.7268 28.3125 63.3731H28.3119ZM62.74 69.2168L54.64 67.0468C54.5013 67.0091 54.3565 66.9992 54.2139 67.0176C54.0714 67.0361 53.9339 67.0826 53.8093 67.1545C53.6848 67.2264 53.5758 67.3222 53.4885 67.4364C53.4012 67.5506 53.3373 67.681 53.3006 67.82L51.13 75.92L48.5456 77.4118L41.5106 65.2243C47.9358 63.7112 53.7651 60.32 58.2563 55.4825L65.325 67.7243L62.74 69.2168Z" fill="#F47B3D"/>
<path id="Vector_2" d="M61.3937 39.0517C61.4444 38.8202 61.4185 38.5786 61.32 38.3631C61.2215 38.1475 61.0557 37.9699 60.8474 37.8567C59.9818 37.3871 59.2589 36.6925 58.7552 35.8463C58.2516 35 57.9857 34.0334 57.9857 33.0486C57.9857 32.0638 58.2516 31.0972 58.7552 30.2509C59.2589 29.4047 59.9818 28.7101 60.8474 28.2405C61.0557 28.1274 61.2216 27.9497 61.3201 27.7342C61.4187 27.5187 61.4445 27.277 61.3937 27.0455C60.026 20.7979 56.5638 15.2055 51.5813 11.1958C46.5989 7.18613 40.3955 5 33.9999 5C27.6044 5 21.401 7.18613 16.4186 11.1958C11.4361 15.2055 7.97391 20.7979 6.6062 27.0455C6.55572 27.2769 6.58168 27.5185 6.68017 27.734C6.77866 27.9495 6.94438 28.1272 7.15245 28.2405C8.01811 28.7101 8.74094 29.4047 9.24464 30.2509C9.74834 31.0972 10.0142 32.0638 10.0142 33.0486C10.0142 34.0334 9.74834 35 9.24464 35.8463C8.74094 36.6925 8.01811 37.3871 7.15245 37.8567C6.94445 37.9701 6.77879 38.1478 6.68031 38.3633C6.58183 38.5787 6.55583 38.8203 6.6062 39.0517C7.97391 45.2993 11.4361 50.8917 16.4186 54.9014C21.401 58.9111 27.6044 61.0972 33.9999 61.0972C40.3955 61.0972 46.5989 58.9111 51.5813 54.9014C56.5638 50.8917 60.026 45.2993 61.3937 39.0517ZM8.91932 39.3336C9.93257 38.6282 10.7602 37.6882 11.3318 36.5939C11.9034 35.4995 12.2019 34.2832 12.2019 33.0486C12.2019 31.814 11.9034 30.5977 11.3318 29.5033C10.7602 28.409 9.93257 27.469 8.91932 26.7636C10.3198 21.172 13.5486 16.2088 18.0928 12.6623C22.637 9.11591 28.236 7.18969 34.0003 7.18969C39.7645 7.18969 45.3635 9.11591 49.9077 12.6623C54.4519 16.2088 57.6807 21.172 59.0812 26.7636C58.0678 27.4691 57.24 28.4091 56.6684 29.5036C56.0968 30.598 55.7982 31.8145 55.7982 33.0492C55.7982 34.284 56.0968 35.5004 56.6684 36.5949C57.24 37.6894 58.0678 38.6294 59.0812 39.3349C57.6807 44.9264 54.4519 49.8897 49.9077 53.4361C45.3635 56.9825 39.7645 58.9088 34.0003 58.9088C28.236 58.9088 22.637 56.9825 18.0928 53.4361C13.5486 49.8897 10.3198 44.9264 8.91932 39.3349V39.3336Z" fill="#F47B3D"/>
<path id="Vector_3" d="M43.0038 45.3905C43.2794 45.3905 43.5448 45.2865 43.747 45.0992L48.747 40.4705C48.8576 40.3681 48.9458 40.244 49.0062 40.1059C49.0665 39.9678 49.0976 39.8187 49.0976 39.668V27.8511C49.0976 27.561 48.9824 27.2828 48.7772 27.0777C48.5721 26.8726 48.2939 26.7573 48.0038 26.7573H38.1876V22.3242C38.1863 21.04 37.6755 19.8087 36.7674 18.9006C35.8593 17.9925 34.6281 17.4818 33.3438 17.4805H30.7813C30.6377 17.4804 30.4954 17.5086 30.3627 17.5636C30.2299 17.6185 30.1093 17.6991 30.0078 17.8006C29.9062 17.9022 29.8256 18.0228 29.7707 18.1556C29.7157 18.2883 29.6875 18.4306 29.6876 18.5742V29.2573H27.3007V27.1261C27.3007 26.836 27.1855 26.5578 26.9804 26.3527C26.7752 26.1476 26.497 26.0323 26.207 26.0323H19.9963C19.7063 26.0323 19.4281 26.1476 19.2229 26.3527C19.0178 26.5578 18.9026 26.836 18.9026 27.1261V47.5192C18.9025 47.6629 18.9307 47.8051 18.9857 47.9379C19.0406 48.0706 19.1212 48.1912 19.2228 48.2928C19.3243 48.3944 19.4449 48.4749 19.5777 48.5299C19.7104 48.5848 19.8527 48.6131 19.9963 48.613H26.207C26.3506 48.6131 26.4929 48.5848 26.6256 48.5299C26.7584 48.4749 26.879 48.3944 26.9805 48.2928C27.0821 48.1912 27.1627 48.0706 27.2176 47.9379C27.2726 47.8051 27.3008 47.6629 27.3007 47.5192V45.3905H43.0038ZM30.7776 31.4448C31.0677 31.4448 31.3459 31.3296 31.551 31.1245C31.7561 30.9194 31.8713 30.6412 31.8713 30.3511V19.668H33.3426C34.0469 19.6686 34.7221 19.9487 35.2201 20.4467C35.7181 20.9447 35.9982 21.6199 35.9988 22.3242V27.8511C35.9988 27.9948 36.027 28.137 36.0819 28.2698C36.1369 28.4025 36.2174 28.5231 36.319 28.6247C36.4206 28.7263 36.5412 28.8068 36.6739 28.8618C36.8067 28.9167 36.9489 28.9449 37.0926 28.9448H46.9101V39.1886L42.5757 43.2017H27.3007V31.4448H30.7776ZM25.1132 46.4255H21.0901V28.2223H25.1132V46.4255Z" fill="#F47B3D"/>
</g>
</svg>
