<svg width="80" height="80" viewBox="0 0 80 80" fill="none" xmlns="http://www.w3.org/2000/svg">
<g id="Group">
<path id="Vector" d="M54.5325 63.4805H25.47C23.4794 63.4828 21.5709 64.2746 20.1633 65.6823C18.7558 67.09 17.9641 68.9985 17.9619 70.9892V78.9067C17.9619 79.1968 18.0771 79.475 18.2823 79.6801C18.4874 79.8852 18.7656 80.0005 19.0557 80.0005H60.9494C61.2395 80.0005 61.5177 79.8852 61.7228 79.6801C61.9279 79.475 62.0432 79.1968 62.0432 78.9067V70.9892C62.041 68.9981 61.249 67.0892 59.8409 65.6814C58.4328 64.2737 56.5236 63.4821 54.5325 63.4805ZM59.8532 77.8148H20.1469V70.9892C20.1486 69.5786 20.7096 68.2261 21.7071 67.2286C22.7045 66.231 24.0569 65.6698 25.4675 65.668H54.53C55.9407 65.6698 57.2931 66.231 58.2905 67.2286C59.2879 68.2261 59.849 69.5786 59.8507 70.9892L59.8532 77.8148Z" fill="#F47B3D"/>
<path id="Vector_2" d="M31.8031 44.9156V49.6194C31.802 50.9774 32.1343 52.3149 32.7707 53.5145C33.4071 54.7142 34.3281 55.7393 35.4531 56.5L39.3869 59.1644C39.5678 59.287 39.7814 59.3525 40 59.3525C40.2186 59.3525 40.4321 59.287 40.6131 59.1644L44.5469 56.5C45.6717 55.7394 46.5928 54.7143 47.2291 53.5148C47.8655 52.3153 48.1978 50.9779 48.1969 49.62V44.9156C48.1969 42.7417 47.3333 40.6568 45.796 39.1196C44.2588 37.5823 42.1739 36.7188 40 36.7188C37.826 36.7188 35.7411 37.5823 34.2039 39.1196C32.6667 40.6568 31.8031 42.7417 31.8031 44.9156ZM46.0094 44.9156V49.6194C46.0103 50.6197 45.7658 51.6049 45.2972 52.4886C44.8287 53.3724 44.1504 54.1276 43.3219 54.6881L40 56.9375L36.6794 54.6875C35.8509 54.127 35.1726 53.3717 34.7041 52.488C34.2355 51.6042 33.9909 50.619 33.9919 49.6187V44.9156C33.9919 43.3218 34.625 41.7933 35.752 40.6664C36.8789 39.5394 38.4074 38.9062 40.0012 38.9062C41.595 38.9062 43.1235 39.5394 44.2505 40.6664C45.3775 41.7933 46.0106 43.3218 46.0106 44.9156H46.0094Z" fill="#F47B3D"/>
<path id="Vector_3" d="M13.7419 53.8294L16.8088 55.9056C16.9897 56.0282 17.2033 56.0938 17.4219 56.0938C17.6405 56.0938 17.854 56.0282 18.035 55.9056L21.1019 53.8294C22.0111 53.2142 22.7556 52.3854 23.27 51.4156C23.7845 50.4458 24.0531 49.3647 24.0525 48.2669V44.5994C24.0525 42.8408 23.3539 41.1543 22.1104 39.9108C20.867 38.6673 19.1804 37.9687 17.4219 37.9688C15.6633 37.9687 13.9768 38.6673 12.7333 39.9108C11.4898 41.1543 10.7913 42.8408 10.7913 44.5994V48.2662C10.7905 49.3641 11.0592 50.4455 11.5736 51.4154C12.088 52.3853 12.8325 53.2142 13.7419 53.8294ZM12.9788 44.5994C12.9788 43.421 13.4469 42.2909 14.2801 41.4576C15.1134 40.6244 16.2435 40.1562 17.4219 40.1562C18.6003 40.1562 19.7304 40.6244 20.5637 41.4576C21.3969 42.2909 21.865 43.421 21.865 44.5994V48.2662C21.8653 49.0064 21.684 49.7353 21.3371 50.3891C20.9901 51.0429 20.4881 51.6016 19.875 52.0162L17.4219 53.6781L14.9688 52.0175C14.3557 51.6028 13.8536 51.0441 13.5067 50.3904C13.1598 49.7366 12.9785 49.0076 12.9788 48.2675V44.5994Z" fill="#F47B3D"/>
<path id="Vector_4" d="M23.8 59.7888C23.7675 59.5237 23.6392 59.2797 23.4392 59.1028C23.2392 58.9258 22.9814 58.8281 22.7144 58.8281H6.09375C4.47815 58.8299 2.92923 59.4725 1.78683 60.615C0.644422 61.7574 0.00181983 63.3063 1.78792e-07 64.9219V71.0938C-8.1981e-05 71.2374 0.0281526 71.3797 0.0830896 71.5124C0.138027 71.6451 0.218588 71.7658 0.320169 71.8673C0.421749 71.9689 0.542356 72.0495 0.675093 72.1044C0.80783 72.1594 0.950094 72.1876 1.09375 72.1875H14.0531C14.1968 72.1876 14.339 72.1594 14.4718 72.1044C14.6045 72.0495 14.7251 71.9689 14.8267 71.8673C14.9283 71.7658 15.0088 71.6451 15.0638 71.5124C15.1187 71.3797 15.147 71.2374 15.1469 71.0938V70.9869C15.1459 68.6838 15.9169 66.4469 17.3366 64.6335C18.7563 62.8201 20.7428 61.5349 22.9787 60.9831C23.2378 60.9185 23.4642 60.7614 23.6155 60.5414C23.7667 60.3214 23.8323 60.0537 23.8 59.7888ZM13 70H2.1875V64.9219C2.18866 63.8862 2.60058 62.8933 3.33289 62.161C4.06521 61.4287 5.0581 61.0168 6.09375 61.0156H17.9244C16.514 62.0789 15.3456 63.4297 14.4967 64.9786C13.6477 66.5275 13.1376 68.2391 13 70Z" fill="#F47B3D"/>
<path id="Vector_5" d="M55.9475 44.5994V48.2662C55.9469 49.364 56.2156 50.4452 56.73 51.415C57.2444 52.3848 57.9889 53.2136 58.8981 53.8287L61.965 55.905C62.146 56.0276 62.3595 56.0931 62.5781 56.0931C62.7967 56.0931 63.0103 56.0276 63.1913 55.905L66.2581 53.8287C67.1674 53.2136 67.9119 52.3848 68.4263 51.415C68.9407 50.4452 69.2094 49.364 69.2088 48.2662V44.5994C69.2088 42.8408 68.5102 41.1543 67.2667 39.9108C66.0232 38.6673 64.3367 37.9688 62.5781 37.9688C60.8196 37.9688 59.1331 38.6673 57.8896 39.9108C56.6461 41.1543 55.9475 42.8408 55.9475 44.5994ZM58.135 44.5994C58.135 43.421 58.6031 42.2909 59.4364 41.4576C60.2696 40.6244 61.3997 40.1562 62.5781 40.1562C63.7565 40.1562 64.8867 40.6244 65.7199 41.4576C66.5531 42.2909 67.0213 43.421 67.0213 44.5994V48.2662C67.0215 49.0064 66.8403 49.7353 66.4933 50.3891C66.1464 51.0429 65.6444 51.6016 65.0313 52.0162L62.5781 53.6781L60.125 52.0175C59.5119 51.6029 59.0099 51.0442 58.6629 50.3904C58.316 49.7366 58.1347 49.0076 58.135 48.2675V44.5994Z" fill="#F47B3D"/>
<path id="Vector_6" d="M73.9062 58.8281H57.2856C57.0186 58.8282 56.7609 58.9259 56.561 59.1028C56.3611 59.2798 56.2328 59.5237 56.2003 59.7887C56.1678 60.0537 56.2333 60.3214 56.3845 60.5414C56.5357 60.7614 56.7622 60.9185 57.0212 60.9831C59.2572 61.5349 61.2437 62.8201 62.6634 64.6335C64.0831 66.4469 64.8541 68.6838 64.8531 70.9869V71.0938C64.853 71.2374 64.8813 71.3797 64.9362 71.5124C64.9911 71.6451 65.0717 71.7658 65.1733 71.8673C65.2749 71.9689 65.3955 72.0495 65.5282 72.1044C65.6609 72.1594 65.8032 72.1876 65.9469 72.1875H78.9062C79.0499 72.1876 79.1922 72.1594 79.3249 72.1044C79.4576 72.0495 79.5782 71.9689 79.6798 71.8673C79.7814 71.7658 79.862 71.6451 79.9169 71.5124C79.9718 71.3797 80.0001 71.2374 80 71.0938V64.9219C79.9982 63.3063 79.3556 61.7574 78.2132 60.615C77.0708 59.4725 75.5219 58.8299 73.9062 58.8281ZM77.8125 70H67C66.8622 68.2389 66.3518 66.5273 65.5025 64.9784C64.6532 63.4295 63.4845 62.0787 62.0737 61.0156H73.9062C74.9419 61.0168 75.9348 61.4287 76.6671 62.161C77.3994 62.8933 77.8113 63.8862 77.8125 64.9219V70Z" fill="#F47B3D"/>
<path id="Vector_7" d="M28.9781 24.0741L27.5131 36.0528C27.4892 36.2467 27.5177 36.4434 27.5955 36.6225C27.6733 36.8017 27.7977 36.9567 27.9557 37.0715C28.1137 37.1863 28.2996 37.2568 28.494 37.2755C28.6884 37.2941 28.8843 37.2604 29.0613 37.1778L40 32.0816L50.9375 37.176C51.1145 37.2584 51.3103 37.292 51.5046 37.2732C51.6989 37.2545 51.8847 37.184 52.0426 37.0692C52.2005 36.9544 52.3248 36.7995 52.4026 36.6204C52.4804 36.4413 52.5089 36.2447 52.485 36.051L51.0219 24.0741L59.25 15.2447C59.3831 15.1019 59.4755 14.9261 59.5177 14.7355C59.56 14.545 59.5505 14.3466 59.4902 14.1609C59.43 13.9753 59.3212 13.8091 59.1751 13.6797C59.029 13.5502 58.8509 13.4622 58.6594 13.4247L46.8125 11.1172L40.9563 0.562831C40.8616 0.392255 40.7229 0.250117 40.5548 0.151152C40.3867 0.0521876 40.1951 0 40 0C39.8049 0 39.6134 0.0521876 39.4452 0.151152C39.2771 0.250117 39.1385 0.392255 39.0438 0.562831L33.1875 11.1172L21.3431 13.4247C21.1516 13.4622 20.9735 13.5502 20.8274 13.6797C20.6814 13.8091 20.5726 13.9753 20.5123 14.1609C20.4521 14.3466 20.4426 14.545 20.4848 14.7355C20.527 14.9261 20.6195 15.1019 20.7525 15.2447L28.9781 24.0741ZM34.1069 13.1666C34.264 13.1364 34.4126 13.0721 34.5422 12.9783C34.6718 12.8845 34.7792 12.7633 34.8569 12.6235L40 3.34971L45.1463 12.6253C45.224 12.7651 45.3315 12.8861 45.4611 12.9798C45.5907 13.0735 45.7392 13.1377 45.8963 13.1678L56.3063 15.196L49.0744 22.9553C48.9655 23.0721 48.8834 23.2112 48.8339 23.363C48.7845 23.5148 48.7689 23.6756 48.7881 23.8341L50.0763 34.3616L40.4619 29.8841C40.3174 29.8161 40.1597 29.7809 40 29.7809C39.8403 29.7809 39.6826 29.8161 39.5381 29.8841L29.9244 34.3616L31.2113 23.8341C31.2308 23.6756 31.2153 23.5148 31.166 23.363C31.1166 23.2112 31.0346 23.072 30.9256 22.9553L23.6963 15.1947L34.1069 13.1666Z" fill="#F47B3D"/>
<path id="Vector_8" d="M33.57 27.7138C33.5462 27.9075 33.5747 28.1042 33.6524 28.2832C33.7302 28.4623 33.8546 28.6172 34.0125 28.732C34.1704 28.8468 34.3561 28.9173 34.5505 28.936C34.7448 28.9548 34.9406 28.9212 35.1175 28.8388L40 26.5644L44.8819 28.8381C45.0589 28.9208 45.2548 28.9545 45.4492 28.9358C45.6436 28.9171 45.8295 28.8467 45.9875 28.7318C46.1455 28.617 46.2699 28.462 46.3477 28.2828C46.4255 28.1037 46.454 27.907 46.43 27.7131L45.7757 22.3675L49.4475 18.43C49.5806 18.2873 49.6731 18.1115 49.7154 17.921C49.7576 17.7304 49.7481 17.5321 49.6879 17.3465C49.6276 17.1608 49.5188 16.9947 49.3727 16.8653C49.2265 16.7359 49.0485 16.648 48.8569 16.6106L43.57 15.5806L40.9563 10.8675C40.8616 10.6969 40.723 10.5548 40.5548 10.4558C40.3867 10.3569 40.1951 10.3047 40 10.3047C39.8049 10.3047 39.6134 10.3569 39.4452 10.4558C39.2771 10.5548 39.1385 10.6969 39.0438 10.8675L36.43 15.5775L31.1432 16.6075C30.9516 16.6449 30.7735 16.7328 30.6274 16.8622C30.4813 16.9916 30.3725 17.1577 30.3122 17.3433C30.252 17.529 30.2425 17.7273 30.2847 17.9179C30.327 18.1084 30.4195 18.2841 30.5525 18.4269L34.2244 22.3675L33.57 27.7138ZM33.5 18.3775L37.3519 17.6275C37.509 17.5973 37.6575 17.5331 37.7871 17.4394C37.9166 17.3457 38.0241 17.2247 38.1019 17.085L40 13.6525L41.9044 17.0844C41.9822 17.2241 42.0897 17.3451 42.2193 17.4388C42.3488 17.5325 42.4974 17.5967 42.6544 17.6269L46.5063 18.3769L43.8282 21.2488C43.7193 21.3655 43.6373 21.5047 43.5879 21.6565C43.5386 21.8083 43.5231 21.9691 43.5425 22.1275L44.0194 26.0231L40.4619 24.3663C40.3173 24.2988 40.1596 24.2638 40 24.2638C39.8404 24.2638 39.6828 24.2988 39.5382 24.3663L35.9807 26.0231L36.4575 22.1275C36.4767 21.9691 36.461 21.8084 36.4117 21.6566C36.3624 21.5049 36.2806 21.3657 36.1719 21.2488L33.5 18.3775Z" fill="#F47B3D"/>
</g>
</svg>
