<?xml version="1.0" standalone="no"?>
<!DOCTYPE svg PUBLIC "-//W3C//DTD SVG 20010904//EN"
        "http://www.w3.org/TR/2001/REC-SVG-20010904/DTD/svg10.dtd">
<svg version="1.0" xmlns="http://www.w3.org/2000/svg"
     width="260.000000pt" height="260.000000pt" viewBox="0 0 260.000000 260.000000"
     preserveAspectRatio="xMidYMid meet">
    <metadata>
        Created by potrace 1.14, written by Peter Selinger 2001-2017
    </metadata>
    <g transform="translate(0.000000,260.000000) scale(0.100000,-0.100000)"
       fill="#000000" stroke="none">
        <path d="M1230 2457 c-3 -3 -27 -7 -55 -10 -71 -7 -264 -77 -273 -99 -2 -4
-10 -8 -18 -8 -8 0 -14 -4 -14 -10 0 -5 -7 -10 -15 -10 -7 0 -19 -8 -24 -17
-6 -10 -11 -15 -11 -11 0 5 -12 -2 -27 -15 -43 -36 -106 -97 -100 -97 3 0 -10
-15 -28 -34 -18 -19 -36 -44 -40 -55 -3 -12 -10 -21 -14 -21 -4 0 -13 -16 -20
-35 -7 -19 -17 -33 -22 -30 -5 3 -6 -1 -3 -9 3 -9 1 -16 -5 -16 -6 0 -10 -3
-9 -7 3 -13 -14 -58 -26 -65 -17 -11 1 -21 39 -22 19 -1 35 -3 35 -6 0 -3 19
-6 43 -6 40 -1 77 -5 160 -19 21 -4 57 -8 80 -10 23 -2 44 -4 47 -6 3 -1 16
-3 30 -4 14 -1 36 -5 50 -9 14 -3 39 -8 55 -10 17 -2 37 -6 46 -10 9 -4 20 -6
25 -5 5 1 20 -1 34 -4 14 -4 41 -9 60 -11 19 -3 35 -5 35 -6 0 -1 155 -36 205
-46 14 -2 32 -7 40 -11 8 -3 27 -7 41 -9 15 -2 39 -9 55 -15 16 -7 34 -13 39
-14 6 -1 12 -3 15 -4 5 -2 14 -5 53 -14 6 -2 22 -8 33 -15 12 -6 24 -8 28 -5
3 3 6 0 6 -7 0 -7 3 -10 6 -7 4 4 19 -2 34 -13 15 -11 30 -17 34 -13 3 3 6 1
6 -5 0 -7 6 -12 14 -12 8 0 18 -10 22 -22 9 -25 13 -90 6 -83 -3 2 -13 -6 -23
-20 -17 -21 -103 -63 -112 -54 -2 2 -10 -1 -18 -8 -8 -6 -52 -23 -99 -36 -136
-41 -160 -50 -160 -59 0 -5 5 -6 10 -3 6 3 10 2 10 -3 0 -5 10 -12 23 -15 12
-3 92 -23 178 -46 86 -23 180 -46 210 -51 30 -6 61 -13 70 -15 10 -4 21 7 33
32 10 21 17 38 15 38 -1 0 4 11 11 25 8 14 15 27 15 30 0 3 5 19 12 35 6 17
15 39 19 50 4 11 6 26 5 33 -1 6 2 12 8 12 5 0 8 8 6 18 -1 9 0 22 4 27 15 26
16 285 1 303 -1 1 -3 10 -4 20 -1 9 -5 23 -9 30 -5 6 -5 12 -1 12 3 0 1 7 -6
15 -7 9 -10 18 -7 21 3 3 -1 17 -8 31 -8 15 -12 30 -9 35 3 4 0 8 -6 8 -6 0
-9 4 -6 9 4 5 3 11 -1 13 -5 1 -21 29 -37 61 -15 31 -32 57 -37 57 -5 0 -9 6
-9 13 0 7 -22 36 -48 65 -27 29 -46 54 -44 57 3 3 -2 5 -11 5 -10 0 -17 4 -17
8 0 11 -102 88 -112 84 -4 -1 -8 2 -8 8 0 12 -148 82 -177 84 -13 0 -23 4 -23
7 0 18 -295 52 -310 36z"/>
        <path d="M500 1823 c0 -6 12 -13 28 -16 24 -4 56 -12 87 -21 6 -2 24 -6 40
-11 17 -4 35 -10 40 -14 6 -3 16 -6 23 -7 29 -5 180 -87 209 -114 17 -16 33
-27 35 -24 3 2 11 -14 18 -37 l14 -41 -37 -35 c-21 -18 -42 -31 -47 -28 -6 3
-10 1 -10 -4 0 -6 -9 -11 -20 -11 -11 0 -20 -5 -20 -10 0 -6 -3 -9 -7 -8 -5 1
-21 -4 -36 -10 -16 -7 -35 -12 -43 -12 -8 0 -14 -5 -14 -10 0 -6 -3 -9 -7 -8
-5 1 -21 -4 -38 -11 -16 -7 -31 -12 -33 -11 -7 2 -52 -54 -52 -65 0 -16 63
-85 77 -85 6 0 16 -7 23 -15 7 -8 24 -21 39 -28 88 -46 116 -63 119 -69 2 -5
9 -8 16 -8 7 0 34 -11 59 -24 25 -14 48 -22 51 -19 3 4 6 1 6 -5 0 -7 7 -12
15 -12 8 0 15 -5 15 -12 0 -6 3 -9 6 -5 6 5 32 -5 134 -50 109 -49 140 -61
140 -56 0 3 9 -2 20 -12 11 -10 20 -15 20 -10 0 4 6 2 13 -4 8 -6 17 -8 20 -4
4 3 7 1 7 -6 0 -7 5 -9 10 -6 6 3 10 3 10 -2 0 -4 19 -14 42 -21 23 -7 59 -22
82 -33 22 -10 43 -19 48 -19 10 0 122 -51 128 -59 13 -15 42 -6 58 18 9 14 21
29 27 33 5 4 6 8 2 8 -5 0 1 12 12 26 12 15 21 33 21 40 0 8 4 14 9 14 5 0 14
14 21 31 7 17 18 36 24 43 6 6 20 29 31 51 10 22 26 48 34 58 8 9 11 17 6 17
-4 0 -2 7 5 16 8 8 9 14 4 13 -5 -1 -11 0 -14 1 -7 2 -42 9 -70 14 -14 2 -32
6 -40 10 -8 3 -29 7 -45 9 -17 2 -35 6 -40 8 -6 3 -37 11 -70 18 -33 7 -67 16
-75 19 -20 7 -41 12 -62 14 -10 1 -18 5 -18 8 0 3 -20 12 -45 19 -25 7 -45 17
-45 22 0 5 -5 8 -12 6 -6 -1 -16 11 -22 26 -9 25 -7 31 21 57 18 17 40 31 50
33 10 2 27 8 38 14 11 6 22 11 25 11 3 0 25 5 50 12 25 7 51 13 58 13 6 0 12
4 12 9 0 5 4 7 8 4 4 -2 26 4 49 14 23 10 44 16 47 12 3 -3 6 0 6 6 0 7 6 12
14 12 15 0 46 26 46 38 0 7 -74 52 -87 53 -5 1 -17 6 -28 12 -11 6 -23 12 -27
13 -5 1 -11 3 -15 4 -5 1 -12 2 -17 1 -4 -1 -14 3 -20 8 -7 6 -23 13 -37 15
-13 3 -24 5 -24 6 0 1 -7 3 -15 5 -8 2 -26 7 -40 10 -14 3 -36 8 -50 11 -14 2
-38 10 -53 16 -15 6 -30 8 -34 4 -3 -3 -11 -2 -18 4 -6 5 -27 12 -46 14 -19 3
-45 8 -59 11 -14 4 -38 8 -55 11 -16 2 -61 11 -100 18 -38 8 -92 18 -120 22
-27 3 -55 11 -62 16 -7 6 -14 5 -18 -2 -4 -7 -11 -8 -18 -2 -7 5 -19 9 -27 10
-35 0 -126 11 -140 16 -8 3 -40 7 -70 10 -30 3 -81 8 -112 12 -38 4 -58 3 -58
-3z"/>
        <path d="M480 1727 c-3 -74 -2 -155 4 -209 7 -61 42 -185 58 -205 6 -7 7 -13
3 -13 -4 0 -2 -7 5 -15 7 -8 9 -15 4 -15 -5 0 -4 -4 3 -8 6 -4 13 -16 15 -27
1 -11 5 -22 8 -25 6 -6 37 -72 39 -85 1 -5 9 -17 16 -25 7 -8 17 -27 20 -42 4
-16 11 -28 15 -28 5 0 12 -9 15 -20 4 -11 24 -49 46 -85 21 -36 39 -69 39 -73
0 -5 9 -17 20 -27 11 -10 20 -22 20 -26 0 -17 245 -372 329 -479 103 -129 121
-153 121 -160 0 -5 14 -13 30 -19 32 -11 50 1 95 63 20 28 45 60 65 84 6 7 49
65 96 130 47 64 91 124 97 132 26 34 87 130 87 139 0 9 -99 55 -112 53 -5 -1
-8 2 -8 6 0 5 -6 9 -12 9 -7 0 -30 7 -51 16 -20 9 -40 16 -42 16 -3 0 -19 8
-35 16 -17 9 -30 12 -30 8 0 -5 -4 -2 -9 5 -4 7 -17 15 -27 17 -10 2 -20 4
-21 5 -2 2 -6 3 -10 4 -5 1 -22 9 -39 19 -17 9 -34 13 -38 10 -3 -4 -6 -1 -6
5 0 7 -9 12 -19 12 -11 0 -23 5 -26 10 -3 5 -15 10 -26 10 -10 0 -19 4 -19 10
0 5 -3 9 -7 9 -5 -1 -11 0 -15 1 -5 1 -11 3 -15 4 -10 3 -98 43 -145 66 -20
10 -39 16 -42 13 -3 -4 -6 -1 -6 6 0 7 -4 10 -9 7 -5 -3 -14 1 -21 9 -7 8 -16
13 -20 10 -5 -3 -16 2 -24 11 -9 8 -16 12 -16 8 0 -4 -8 -1 -17 8 -10 8 -31
20 -47 27 -28 11 -127 74 -153 96 -32 26 -40 34 -60 59 -13 14 -20 26 -18 26
3 0 1 9 -5 20 -12 23 4 62 42 97 24 22 117 69 131 65 4 -1 7 3 7 9 0 5 4 8 8
5 4 -2 46 14 92 36 l85 40 -43 38 c-39 35 -96 69 -116 68 -5 0 -12 4 -15 9
-11 15 -156 70 -173 65 -5 -1 -8 2 -8 6 0 4 -8 8 -17 8 -10 1 -34 4 -54 7 -36
6 -37 6 -39 -26z"/>
    </g>
</svg>
