<svg width="23" height="21" viewBox="0 0 23 21" fill="none" xmlns="http://www.w3.org/2000/svg">
    <path d="M15.5625 16.125C16.7734 16.125 17.75 17.1406 17.75 18.3125C17.75 19.5234 16.7734 20.5 15.5625 20.5C14.3906 20.5 13.375 19.5234 13.375 18.3125C13.375 17.1406 14.3906 16.125 15.5625 16.125ZM15.5625 19.25C16.1094 19.25 16.5 18.8594 16.5 18.3125C16.5 17.8047 16.1094 17.375 15.5625 17.375C15.0547 17.375 14.625 17.8047 14.625 18.3125C14.625 18.8594 15.0547 19.25 15.5625 19.25ZM0.523438 3.50781C0.757812 3.19531 1.10938 3 1.5 3H18.5703L19.0391 1.00781C19.1172 0.734375 19.3516 0.5 19.625 0.5H22.125C22.4766 0.5 22.75 0.8125 22.75 1.125C22.75 1.47656 22.4766 1.75 22.125 1.75H20.1328L17.125 15.0312C17.0469 15.3047 16.8125 15.5 16.5 15.5H3.375C3.0625 15.5 2.75 15.2266 2.75 14.875C2.75 14.5625 3.0625 14.25 3.375 14.25H16.0312L16.3047 13H4.15625C3.33594 13 2.59375 12.4922 2.35938 11.7109L0.328125 4.5625C0.210938 4.21094 0.289062 3.82031 0.523438 3.50781ZM3.57031 11.3594C3.60938 11.5938 3.88281 11.75 4.15625 11.75H16.5C16.5391 11.75 16.5781 11.7891 16.5781 11.7891L18.2969 4.25L1.5 4.21094L3.57031 11.3594ZM4.9375 16.125C6.14844 16.125 7.125 17.1406 7.125 18.3125C7.125 19.5234 6.14844 20.5 4.9375 20.5C3.76562 20.5 2.75 19.5234 2.75 18.3125C2.75 17.1406 3.76562 16.125 4.9375 16.125ZM4.9375 19.25C5.48438 19.25 5.875 18.8594 5.875 18.3125C5.875 17.8047 5.48438 17.375 4.9375 17.375C4.42969 17.375 4 17.8047 4 18.3125C4 18.8594 4.42969 19.25 4.9375 19.25Z"
          fill="black"/>
</svg>
