<svg width="19" height="17" viewBox="0 0 19 17" fill="none" xmlns="http://www.w3.org/2000/svg">
    <path d="M8.59375 8.84375C8.8125 9.0625 9.15625 9.0625 9.375 8.84375L12.7812 5.28125C13.7812 4.25 13.7188 2.53125 12.625 1.5625C11.6562 0.71875 10.2188 0.875 9.34375 1.8125L8.96875 2.15625L8.625 1.8125C7.75 0.875 6.3125 0.71875 5.34375 1.5625C4.25 2.53125 4.1875 4.25 5.1875 5.28125L8.59375 8.84375ZM17.75 11.5312C17.3438 10.9688 16.5625 10.8438 16 11.25L12.25 14.0312H8.46875C8.21875 14.0312 7.96875 13.7812 7.96875 13.5312C7.96875 13.25 8.21875 13.0312 8.46875 13.0312H10.9375C11.4375 13.0312 11.875 12.6875 11.9688 12.1875C12.0625 11.5625 11.5938 11.0312 10.9688 11.0312H5.96875C5.125 11.0312 4.3125 11.3125 3.65625 11.8438L2.21875 13.0312H0.46875C0.21875 13.0312 0 13.25 0 13.5312V16.5C0 16.7812 0.21875 17 0.46875 17H11.3125C12.0312 17 12.6875 16.7812 13.25 16.375L17.4688 13.2812C18.0312 12.875 18.1562 12.0938 17.75 11.5312Z"
          fill="white"/>
</svg>
