<svg width="22" height="20" viewBox="0 0 22 20" fill="none" xmlns="http://www.w3.org/2000/svg">
    <path d="M2.95312 2.96094C5.10156 1.16406 8.26562 1.4375 10.2578 3.50781L11 4.28906L11.7812 3.50781C13.3828 1.86719 16.5859 0.851562 19.0859 2.96094C21.5469 5.07031 21.6641 8.82031 19.4766 11.0859L11.8984 18.8984C11.6641 19.1328 11.3516 19.25 11.0391 19.25C10.6875 19.25 10.375 19.1328 10.1406 18.8984L2.5625 11.0859C0.375 8.82031 0.492188 5.07031 2.95312 2.96094ZM3.46094 10.2266L11 18.0391L18.5781 10.2266C20.0625 8.66406 20.375 5.73438 18.2656 3.9375C16.1172 2.10156 13.6172 3.42969 12.6797 4.36719L11 6.08594L9.35938 4.36719C8.46094 3.42969 5.92188 2.10156 3.77344 3.9375C1.66406 5.73438 1.97656 8.66406 3.46094 10.2266Z"
          fill="black"/>
</svg>
