<svg width="70" height="70" viewBox="0 0 70 70" fill="none" xmlns="http://www.w3.org/2000/svg">
    <path d="M31.6859 43.4089C30.81 43.384 29.5444 43.8308 29.5444 44.8988V45.6237H22.5708C22.2733 45.6237 22.032 45.865 22.032 46.1625C22.032 46.46 22.2733 46.7013 22.5708 46.7013H34.39C34.6875 46.7013 34.9288 46.46 34.9288 46.1625C34.9288 45.865 34.6875 45.6237 34.39 45.6237H33.6321C33.6321 45.6237 33.6321 44.8992 33.6321 44.8988C33.6321 43.937 32.6748 43.4369 31.6859 43.4089ZM30.6219 44.8985C30.6221 44.3194 32.5548 44.3607 32.5548 44.8985V45.6235H30.6219C30.6219 45.6235 30.6219 44.8999 30.6219 44.8985Z"
          fill="#F47B3D"/>
    <path d="M34.5915 33.9162C34.889 33.9162 35.1303 33.6749 35.1303 33.3774V29.9365C35.1303 29.639 34.889 29.3977 34.5915 29.3977C34.294 29.3977 34.0527 29.639 34.0527 29.9365V33.3774C34.0527 33.6749 34.294 33.9162 34.5915 33.9162Z"
          fill="#F47B3D"/>
    <path d="M16.272 30.3815C16.4601 30.5744 16.7709 30.6456 17.0191 30.398L24.6939 22.7713L28.8662 26.8791L28.526 27.217L27.2874 25.9866C27.0777 25.7773 26.7379 25.7773 26.5279 25.9866L25.3853 27.122L24.1764 25.9211C23.9666 25.7118 23.6271 25.7125 23.4167 25.9211L22.1389 27.1913C21.9282 27.4011 21.9271 27.7422 22.1368 27.9534C22.3466 28.1641 22.6877 28.1655 22.8989 27.9555L23.7965 27.0628L25.0054 28.2637C25.2152 28.473 25.5549 28.473 25.7649 28.2637L26.9076 27.1283L28.1461 28.3587C28.2511 28.4632 28.3885 28.5153 28.5257 28.5153C28.6629 28.5153 28.8006 28.4632 28.9054 28.3587L29.6336 27.6349L29.9465 27.9429C30.1584 28.152 30.4997 28.1496 30.7083 27.9371C30.9174 27.7252 30.9146 27.3841 30.7025 27.1752L25.0698 21.6294C24.8594 21.4215 24.5215 21.4226 24.3122 21.6312C24.3122 21.6312 16.2837 29.6101 16.2596 29.6339C16.0184 29.874 16.0839 30.1885 16.272 30.3815Z"
          fill="#F47B3D"/>
    <path d="M30.6836 18.2474L35.931 13.0327L40.057 17.0962L39.4606 17.6886L38.2767 16.5124C38.0669 16.3031 37.7272 16.3031 37.5172 16.5124L36.4254 17.5971L35.2697 16.4489C35.06 16.2396 34.7202 16.2398 34.5102 16.4487L33.275 17.6758C33.064 17.8855 33.0626 18.2267 33.2724 18.4378C33.4826 18.6492 33.8231 18.6499 34.0345 18.4404L34.8901 17.5904L36.0458 18.7388C36.2556 18.9481 36.5953 18.9481 36.8053 18.7388L37.8971 17.6541L39.081 18.8303C39.186 18.9348 39.3234 18.9869 39.4606 18.9869C39.5981 18.9869 39.7355 18.9348 39.8403 18.8303L40.8247 17.8522L44.1341 21.1114L43.3685 22.0169H36.526C33.6257 22.0169 31.2662 24.3636 31.2662 27.248V29.2365C31.2662 29.534 31.5075 29.7753 31.805 29.7753C32.1025 29.7753 32.3437 29.534 32.3437 29.2365V27.248C32.3437 24.9579 34.22 23.0945 36.526 23.0945H42.4578L41.2209 24.5577H37.285C35.5028 24.5577 34.0529 25.9997 34.0529 27.7721C34.0529 28.0696 34.2942 28.3109 34.5917 28.3109C34.8892 28.3109 35.1304 28.0696 35.1304 27.7721C35.1304 26.5938 36.0971 25.635 37.285 25.635H40.3102C40.3102 25.635 39.2754 26.8593 39.2719 26.8635C38.8304 27.3857 39.6422 28.0939 40.0951 27.5593L45.9746 20.6034L48.3238 23.0896L47.3919 24.0157L46.452 23.0819C46.2422 22.8726 45.9025 22.8726 45.6925 23.0819L44.2834 24.4826C44.0725 24.6921 44.0713 25.0332 44.2811 25.2444C44.3863 25.3506 44.5247 25.4033 44.663 25.4033C44.8005 25.4033 44.9379 25.3513 45.0427 25.2467L46.0721 24.2236L47.012 25.1574C47.2218 25.3667 47.5615 25.3667 47.7715 25.1574L49.0639 23.8729L52.3446 27.3446C52.5495 27.5612 52.8904 27.5703 53.1064 27.3663C53.3227 27.1617 53.3323 26.8208 53.1281 26.6045L46.3437 19.4251C46.2385 19.3133 46.0889 19.2491 45.937 19.2566C45.7835 19.2608 45.6395 19.3299 45.5404 19.4472L44.8313 20.2861L36.3071 11.8907C36.0974 11.6833 35.7588 11.6845 35.5495 11.8926L29.9241 17.4833C29.7131 17.6928 29.712 18.0339 29.9217 18.2451C30.1313 18.4565 30.4729 18.4577 30.6836 18.2474Z"
          fill="#F47B3D"/>
    <path d="M27.2391 21.45C27.3765 21.45 27.5139 21.3979 27.6187 21.2934L29.322 19.601C29.533 19.3915 29.5341 19.0504 29.3244 18.8392C29.1148 18.6278 28.7735 18.6266 28.5625 18.8369C28.5625 18.8369 26.8636 20.525 26.8592 20.5292C26.529 20.8573 26.774 21.45 27.2391 21.45Z"
          fill="#F47B3D"/>
    <path d="M60.8956 14.5363C60.9938 14.7145 61.1779 14.8153 61.3683 14.8153C61.4561 14.8153 61.5452 14.7936 61.6276 14.7484C61.888 14.6049 61.9834 14.2773 61.8397 14.0164L59.8722 10.4413V7.77192C59.8722 7.47442 59.6309 7.23315 59.3334 7.23315C59.0359 7.23315 58.7947 7.47442 58.7947 7.77192V10.5799C58.7947 10.6709 58.8175 10.76 58.8614 10.8398L60.8956 14.5363Z"
          fill="#F47B3D"/>
    <path d="M66.3378 22.531L62.5412 15.6311C62.3979 15.3707 62.0708 15.2752 61.8092 15.419C61.5488 15.5625 61.4534 15.8901 61.5971 16.1509L65.3937 23.0508C65.6721 23.5565 65.8193 24.1284 65.8193 24.7045V38.2966C65.8193 39.0993 65.1604 39.7526 64.3507 39.7526C63.5413 39.7526 62.8828 39.0993 62.8828 38.2966V26.5249C62.9456 26.2979 62.9894 26.0643 62.9894 25.8224C62.9894 25.1156 62.7127 24.4515 62.2099 23.9522L56.5935 18.3709C56.3828 18.1606 56.0415 18.1618 55.8317 18.3732C55.6219 18.5841 55.6231 18.9253 55.834 19.135L61.4504 24.7164C61.7479 25.0122 61.9117 25.4049 61.9117 25.8224C61.9117 26.2398 61.7479 26.6327 61.4504 26.9284C60.8332 27.5404 59.8301 27.5404 59.216 26.9302L53.1232 20.8197C51.3284 19.0202 50.3397 16.6337 50.3397 14.0992V7.77216C50.3397 7.47466 50.0985 7.2334 49.801 7.2334C49.5035 7.2334 49.2622 7.47466 49.2622 7.77216V14.099C49.2622 16.9207 50.3624 19.5774 52.3602 21.5804L58.4548 27.6925C58.7033 27.9396 58.991 28.124 59.2965 28.2523V38.3295C59.2965 39.7871 60.4886 40.9732 61.9539 40.9732C62.4306 40.9732 62.8968 40.8399 63.3044 40.6001C63.6246 40.7447 63.9771 40.8299 64.3509 40.8299C65.7549 40.8299 66.8968 39.6933 66.8968 38.2966V24.7045C66.8966 23.9468 66.7034 23.1955 66.3378 22.531ZM60.3738 38.3295V28.4602C60.8745 28.4525 61.3729 28.3074 61.8053 28.0208V38.2966C61.8053 38.8813 62.0136 39.4138 62.3492 39.8431C62.2215 39.8765 62.0897 39.8959 61.9539 39.8959C61.0826 39.8956 60.3738 39.1928 60.3738 38.3295Z"
          fill="#F47B3D"/>
    <path d="M8.37232 14.7486C8.45468 14.7939 8.54382 14.8156 8.63155 14.8156C8.82195 14.8156 9.00605 14.7148 9.10428 14.5365L11.1385 10.84C11.1823 10.7602 11.2052 10.6711 11.2052 10.5801V7.77216C11.2052 7.47466 10.9639 7.2334 10.6664 7.2334C10.3689 7.2334 10.1277 7.47466 10.1277 7.77216V10.4415L8.16022 14.0166C8.01648 14.2773 8.11192 14.6051 8.37232 14.7486Z"
          fill="#F47B3D"/>
    <path d="M10.7032 38.3289V28.2519C11.0093 28.1231 11.2975 27.9383 11.5467 27.6905L17.6395 21.5805C19.637 19.5771 20.7374 16.9203 20.7374 14.0989V7.77204C20.7374 7.47454 20.4962 7.23328 20.1987 7.23328C19.9012 7.23328 19.6599 7.47454 19.6599 7.77204V14.0989C19.6599 16.6329 18.6713 19.0196 16.8765 20.8196L10.7853 26.9282C10.1686 27.5403 9.16597 27.5405 8.54927 26.928C8.25177 26.6324 8.08774 26.2397 8.08774 25.8222C8.08774 25.4048 8.25177 25.0119 8.54927 24.7162L14.1656 19.1349C14.3765 18.9254 14.3777 18.5842 14.1679 18.3731C13.9584 18.1617 13.617 18.1605 13.4061 18.3707L7.78977 23.9518C7.28694 24.4514 7.01021 25.1155 7.01021 25.8222C7.01021 26.0642 7.05407 26.2978 7.11684 26.5248V38.296C7.11684 39.0987 6.45791 39.752 5.64824 39.752C4.83881 39.752 4.18034 39.0987 4.18034 38.296V24.7041C4.18034 24.1282 4.32757 23.5566 4.60594 23.0502L8.40227 16.151C8.54577 15.8906 8.45057 15.5628 8.1897 15.4193C7.92907 15.2756 7.60124 15.3708 7.45797 15.6319L3.6621 22.5311C3.29647 23.1958 3.10327 23.9474 3.10327 24.7041V38.296C3.10327 39.693 4.24497 40.8293 5.6487 40.8293C6.0225 40.8293 6.37484 40.7441 6.69497 40.5995C7.10237 40.8396 7.56904 40.973 8.04644 40.973C9.51154 40.9733 10.7032 39.787 10.7032 38.3289ZM9.62587 28.4598V38.3291C9.62587 39.1929 8.91724 39.896 8.04644 39.896C7.91064 39.896 7.78021 39.8731 7.65304 39.8397C7.98741 39.4111 8.1946 38.8796 8.1946 38.2962V28.0209C8.62674 28.3072 9.12514 28.4521 9.62587 28.4598Z"
          fill="#F47B3D"/>
    <path d="M56.7506 37.0403H50.3552C50.0577 37.0403 49.8164 37.2815 49.8164 37.579C49.8164 37.8765 50.0577 38.1178 50.3552 38.1178H56.7506C57.0481 38.1178 57.2894 37.8765 57.2894 37.579C57.2894 37.2815 57.0483 37.0403 56.7506 37.0403Z"
          fill="#F47B3D"/>
    <path d="M40.2829 37.5791C40.2829 37.2816 40.0416 37.0403 39.7441 37.0403H38.4431V29.3615C38.4431 29.064 38.2018 28.8228 37.9043 28.8228C37.6068 28.8228 37.3655 29.064 37.3655 29.3615V37.0403H35.1302V35.2684C35.1302 34.9709 34.8889 34.7296 34.5914 34.7296C34.2939 34.7296 34.0527 34.9709 34.0527 35.2684V37.0403H32.3433V30.8871C32.3433 30.5896 32.102 30.3483 31.8045 30.3483C31.507 30.3483 31.2657 30.5896 31.2657 30.8871V37.0403H13.5158C13.2183 37.0403 12.9771 37.2816 12.9771 37.5791C12.9771 37.8766 13.2183 38.1178 13.5158 38.1178H39.7441C40.0416 38.1178 40.2829 37.8766 40.2829 37.5791Z"
          fill="#F47B3D"/>
    <path d="M53.7982 44.8639C54.1298 44.2729 54.3027 43.6133 54.3027 42.9263C54.3027 42.6288 54.0614 42.3876 53.7639 42.3876C53.4664 42.3876 53.2252 42.6288 53.2252 42.9263C53.2252 43.575 53.0126 44.1915 52.611 44.709C52.5123 44.8362 52.4757 45.0007 52.5112 45.1579C52.5466 45.315 52.6502 45.448 52.7942 45.5203C53.9522 46.1041 54.6716 47.2647 54.6716 48.5492C54.6716 50.4231 53.1358 51.9479 51.2484 51.9479C51.0365 51.9479 50.0777 51.9605 48.7911 51.9783C48.4936 51.9825 48.2559 52.227 48.2601 52.5245C48.2643 52.8194 48.5044 53.0556 48.7986 53.0556H48.8065C50.0847 53.0378 51.0377 53.0252 51.2484 53.0252C53.7301 53.0252 55.7489 51.0174 55.7489 48.5492C55.7489 47.057 55.0146 45.6927 53.7982 44.8639Z"
          fill="#F47B3D"/>
    <path d="M39.6067 53.1826C39.8394 53.1826 40.7578 53.1707 41.9846 53.1539C42.2821 53.1497 42.5201 52.9054 42.5159 52.6079C42.5117 52.313 42.2716 52.0766 41.9774 52.0766C41.9748 52.0766 41.972 52.0766 41.9697 52.0766C40.7505 52.0932 39.838 52.1053 39.6065 52.1053C38.1213 52.1053 36.8639 51.004 36.6814 49.5435C36.6448 49.2484 36.3762 49.0393 36.0801 49.0755C35.785 49.1123 35.5754 49.3816 35.6121 49.6768C35.8617 51.6755 37.5791 53.1826 39.6067 53.1826Z"
          fill="#F47B3D"/>
    <path d="M47.9073 41.1202C47.5801 41.721 48.5193 42.2497 48.8532 41.6358C49.0984 41.1864 49.2513 40.6899 49.3091 40.1796C50.5343 39.7589 51.9469 40.1959 52.6908 41.2455C52.863 41.4881 53.1992 41.5458 53.4422 41.3736C53.6848 41.2014 53.742 40.8651 53.5703 40.6222C52.8161 39.5582 51.5853 38.9231 50.2777 38.9231C49.9387 38.9231 49.6047 38.9656 49.2795 39.0493C48.9535 37.1649 47.2985 35.7264 45.3124 35.7264C43.2733 35.7264 41.5837 37.2419 41.3223 39.2005C41.2262 39.1945 41.1296 39.1914 41.0332 39.1914C38.5513 39.1914 36.532 41.1993 36.532 43.6672C36.532 44.4837 36.7607 45.2875 37.1835 45.9828C36.6594 46.3772 36.2329 46.8984 35.955 47.4923C35.8138 47.7937 35.9862 48.1598 36.3087 48.2427C36.557 48.3066 36.8225 48.1811 36.9308 47.9494C37.4042 46.939 38.4925 46.2528 39.6069 46.2528C39.9044 46.2528 40.1456 46.0115 40.1456 45.714C40.1456 45.4165 39.9044 45.1753 39.6069 45.1753C39.0954 45.1753 38.6033 45.2838 38.1448 45.4693C37.8 44.9289 37.6096 44.3161 37.6096 43.667C37.6096 41.7933 39.1456 40.2687 41.0332 40.2687C41.2649 40.2687 41.4855 40.3061 41.7134 40.3369C42.0702 40.3849 42.3728 40.0802 42.3647 39.7302C42.3647 38.1167 43.687 36.804 45.3124 36.804C47.4721 36.804 48.9498 39.2059 47.9073 41.1202Z"
          fill="#F47B3D"/>
    <path d="M52.17 61.6892H47.8017L47.0623 50.2655C47.0429 49.9684 46.7781 49.7367 46.4899 49.7626C46.1929 49.7815 45.968 50.038 45.9871 50.335L46.7223 61.6892H43.8904L44.89 46.2542C44.9014 46.0358 45.0843 45.8646 45.3062 45.8646C45.5279 45.8646 45.7108 46.0358 45.7227 46.2603L45.8856 48.7756C45.9045 49.0724 46.1668 49.2974 46.458 49.2785C46.755 49.2596 46.9799 49.0031 46.9608 48.7061L46.7986 46.1971C46.7566 45.4063 46.101 44.7873 45.3065 44.7873C44.5117 44.7873 43.8561 45.4063 43.8145 46.191L42.811 61.6892H37.1442V57.1714C37.5432 57.1714 37.903 57.1171 38.212 56.8429C38.4875 56.5984 38.649 56.2421 38.649 55.8736V54.8985C38.649 54.1834 38.065 53.6012 37.347 53.6012H33.6321V52.1853H34.6254C34.9229 52.1853 35.1642 51.9441 35.1642 51.6466C35.1642 51.3491 34.9229 51.1078 34.6254 51.1078H11.6423C11.3182 51.1078 11.0545 50.8474 11.0545 50.527V47.2825C11.0545 46.9619 11.3182 46.7011 11.6423 46.7011H20.4915C20.789 46.7011 21.0302 46.4598 21.0302 46.1623C21.0302 45.8648 20.789 45.6235 20.4915 45.6235H19.0819C19.0819 45.6235 19.0819 44.8993 19.0819 44.8986C19.0819 43.3805 16.9114 43.1626 15.8701 43.6603C15.4039 43.8831 14.9946 44.3572 14.9946 44.8986V45.6235H11.6423C10.7241 45.6235 9.97699 46.3676 9.97699 47.2823V50.5268C9.97699 51.4412 10.7241 52.1851 11.6423 52.1851H14.9944V53.601H11.0657C10.3891 53.601 9.83862 54.1495 9.83862 54.8239V55.9481C9.83862 56.6224 10.3891 57.171 11.0657 57.171H11.4825V62.1165C11.4825 62.414 11.7237 62.6552 12.0212 62.6552C12.3187 62.6552 12.56 62.414 12.56 62.1165V57.1714H13.4896V62.1169C13.4896 62.4144 13.7309 62.6557 14.0284 62.6557C14.3259 62.6557 14.5671 62.4144 14.5671 62.1169V57.1714H34.06V61.6892H30.0833C29.7858 61.6892 29.5446 61.9305 29.5446 62.228C29.5446 62.5255 29.7858 62.7668 30.0833 62.7668H52.1702C52.4677 62.7668 52.709 62.5255 52.709 62.228C52.7087 61.9305 52.4675 61.6892 52.17 61.6892ZM16.0719 44.8986C16.0721 44.3297 18.0044 44.3507 18.0044 44.8986V45.6235H16.0719C16.0719 45.6235 16.0719 44.9002 16.0719 44.8986ZM32.5548 53.6012H30.6219V52.1853H32.5548V53.6012ZM19.0821 53.6012V52.1853H29.5443V53.6012H19.0821ZM16.0719 52.1853H18.0046V53.6012H16.0719V52.1853ZM10.9159 55.9485V54.8243C10.9159 54.7443 10.9831 54.6787 11.0655 54.6787H37.347C37.4707 54.6787 37.5715 54.7772 37.5715 54.8985V55.8736C37.5715 55.9952 37.4707 56.0941 37.347 56.0941H11.0657C10.9831 56.0941 10.9159 56.0286 10.9159 55.9485ZM35.1373 57.1714H36.0669V61.6892H35.1373V57.1714Z"
          fill="#F47B3D"/>
    <path d="M27.8839 61.6892H23.5871C23.2896 61.6892 23.0483 61.9305 23.0483 62.228C23.0483 62.5255 23.2896 62.7667 23.5871 62.7667H27.8839C28.1814 62.7667 28.4227 62.5255 28.4227 62.228C28.4227 61.9305 28.1817 61.6892 27.8839 61.6892Z"
          fill="#F47B3D"/>
</svg>
