<svg width="70" height="70" viewBox="0 0 70 70" fill="none" xmlns="http://www.w3.org/2000/svg">
    <path d="M29.5162 7.32294L31.6106 5.24114L38.052 11.6436L37.0018 12.5844L33.9185 9.52094C33.7125 9.31654 33.3788 9.31654 33.1728 9.52094L29.4616 13.2095L27.7359 11.4947C27.5289 11.2891 27.1938 11.2903 26.9876 11.497C26.7818 11.7049 26.7829 12.0395 26.9901 12.2456L29.0887 14.3306C29.1919 14.4328 29.3267 14.4844 29.4616 14.4844C29.5965 14.4844 29.7313 14.4328 29.8345 14.3306L33.5456 10.6421L36.61 13.6873C36.8086 13.8847 37.1271 13.8934 37.3359 13.7058L38.8033 12.3907L50.9668 24.4811C51.0699 24.5833 51.2048 24.6349 51.3396 24.6349C51.4757 24.6349 51.6115 24.5826 51.7148 24.4788C51.9209 24.2716 51.9197 23.9363 51.7125 23.7302L31.9832 4.11997C31.7772 3.91557 31.4435 3.91557 31.2375 4.11997L28.7702 6.57208C28.563 6.77811 28.5619 7.11341 28.7679 7.32061C28.9739 7.52734 29.3092 7.52851 29.5162 7.32294Z"
          fill="#F47B3D"/>
    <path d="M11.6479 24.3334C11.7513 24.4372 11.8871 24.4895 12.0231 24.4895C12.158 24.4895 12.2929 24.4379 12.396 24.3357L28.2739 8.55703C28.4811 8.35099 28.4822 8.01569 28.2762 7.80849C28.0704 7.60176 27.7351 7.60059 27.5281 7.80616L11.6503 23.5849C11.4431 23.7909 11.4419 24.1262 11.6479 24.3334Z"
          fill="#F47B3D"/>
    <path d="M55.4578 13.2718L59.4887 17.2429L58.5605 18.1653L56.4495 16.0681C56.2435 15.8637 55.9098 15.8637 55.7038 16.0681L53.7403 18.0194L51.6746 15.967C51.4685 15.7626 51.1349 15.7626 50.9288 15.967L48.9677 17.9161C48.7605 18.1221 48.7593 18.4574 48.9653 18.6646C49.1711 18.8718 49.5064 18.8718 49.7134 18.6669L51.3017 17.0882L53.3674 19.1406C53.5734 19.345 53.9071 19.345 54.1131 19.1406L56.0766 17.1892L58.1876 19.2864C58.2907 19.3886 58.4256 19.4402 58.5605 19.4402C58.6953 19.4402 58.8302 19.3886 58.9333 19.2864L60.2426 17.9856L62.1354 19.8502C62.2385 19.9512 62.3727 20.0023 62.5068 20.0023C62.6436 20.0023 62.7801 19.9496 62.8837 19.8443C63.0885 19.636 63.0864 19.3011 62.8783 19.0958L56.2008 12.5174C55.9922 12.3137 55.6576 12.3147 55.4525 12.5233C55.2474 12.7314 55.2497 13.0662 55.4578 13.2718Z"
          fill="#F47B3D"/>
    <path d="M46.634 16.0589C46.7374 16.1627 46.8732 16.215 47.0092 16.215C47.1441 16.215 47.279 16.1634 47.3821 16.0612L52.8122 10.6652L54.4302 12.2588C54.6383 12.4637 54.9734 12.4621 55.1785 12.2537C55.3833 12.0453 55.3812 11.7105 55.1731 11.5056L53.1821 9.544C52.9751 9.3403 52.6431 9.34124 52.4377 9.54517L46.6364 15.3104C46.4292 15.5164 46.428 15.8517 46.634 16.0589Z"
          fill="#F47B3D"/>
    <path d="M4.36044 19.499C4.4946 19.499 4.62877 19.4479 4.7319 19.3464L6.2838 17.8174L7.3401 18.8671C7.44324 18.9693 7.5781 19.0209 7.71297 19.0209C7.84784 19.0209 7.9827 18.9693 8.08584 18.8671L9.823 17.1407L11.4353 18.743C11.6414 18.9474 11.975 18.9474 12.1811 18.743L13.8793 17.0546L15.1731 18.3405C15.3801 18.5461 15.7154 18.5449 15.9212 18.3382C16.1272 18.131 16.126 17.7957 15.9188 17.5896L14.2521 15.9334C14.0461 15.729 13.7124 15.729 13.5064 15.9334L11.8082 17.6218L10.1959 16.0195C9.98984 15.8151 9.65617 15.8151 9.45014 16.0195L7.71297 17.746L7.03794 17.0747L12.5964 11.5981L17.1539 16.1266C17.3608 16.3322 17.6961 16.331 17.9019 16.1243C18.108 15.9171 18.1068 15.5818 17.8996 15.3758L12.9707 10.4781C12.7649 10.2737 12.4328 10.2725 12.2263 10.4769L3.9892 18.593C3.78107 18.7978 3.77874 19.1327 3.98384 19.341C4.0872 19.4463 4.22394 19.499 4.36044 19.499Z"
          fill="#F47B3D"/>
    <path d="M39.9819 9.95516L41.8141 8.13446L43.3272 9.63829C43.5333 9.84269 43.8672 9.84316 44.0732 9.63783L44.636 9.07806L46.0876 10.5203C46.1907 10.6225 46.3256 10.6741 46.4604 10.6741C46.5953 10.6741 46.7302 10.6225 46.8333 10.5203L48.136 9.22576L49.2775 10.36C49.3806 10.4622 49.5155 10.5138 49.6503 10.5138C49.7864 10.5138 49.9222 10.4615 50.0255 10.3577C50.2316 10.1505 50.2304 9.81516 50.0232 9.60913L44.7986 4.41746C44.5926 4.21306 44.2589 4.21306 44.0529 4.41746L41.4386 7.01516L39.2357 9.20429C39.0285 9.41033 39.0274 9.74563 39.2334 9.95283C39.4394 10.16 39.7747 10.16 39.9819 9.95516ZM44.426 5.53863L47.3856 8.47956L46.4607 9.39889L45.0089 7.95619C44.8028 7.75179 44.4689 7.75133 44.2629 7.95666L43.7001 8.51643L42.5652 7.38826L44.426 5.53863Z"
          fill="#F47B3D"/>
    <path d="M29.4196 16.4501C28.9429 16.1675 28.4205 15.989 27.8668 15.9197C25.6702 15.6395 23.6537 17.197 23.3758 19.3833C23.2412 20.4384 23.5268 21.4833 24.1801 22.3261C24.8381 23.1747 25.789 23.7161 26.8581 23.8502C27.0289 23.8719 27.1985 23.8824 27.3665 23.8824C29.3587 23.8824 31.0926 22.404 31.3495 20.3878C31.3495 20.3873 31.3495 20.3873 31.3498 20.3873C31.413 19.8885 31.3827 19.3901 31.2599 18.9045C30.9993 17.8834 30.3285 16.9891 29.4196 16.4501ZM30.3 20.2534C30.0947 21.862 28.6118 22.9993 26.9904 22.8007C26.202 22.7013 25.5008 22.3023 25.0164 21.6772C24.5367 21.0589 24.3269 20.2914 24.4254 19.5163C24.6141 18.0328 25.8916 16.9454 27.3602 16.9454C27.4839 16.9454 27.6092 16.9534 27.7347 16.969C28.1435 17.0206 28.529 17.1522 28.8802 17.3605C29.5494 17.7572 30.0431 18.4152 30.2344 19.1649C30.3245 19.521 30.3467 19.8871 30.3 20.2534Z"
          fill="#F47B3D"/>
    <path d="M66.4432 25.341C66.3399 25.0678 66.034 24.9287 65.7612 25.0332L59.608 27.3612C59.3347 27.4646 59.1968 27.77 59.3002 28.0432C59.3802 28.2551 59.5816 28.3853 59.7951 28.3853C59.8574 28.3853 59.9209 28.3743 59.9822 28.3508L66.1355 26.0228C66.4089 25.9199 66.5466 25.6145 66.4432 25.341Z"
          fill="#F47B3D"/>
    <path d="M58.5392 37.2358H55.9706L54.25 35.581L55.2562 30.1513L57.9479 29.1328C58.2212 29.0294 58.3591 28.724 58.2557 28.4508C58.1523 28.1775 57.8457 28.0396 57.5737 28.143L54.6033 29.2672C54.4302 29.3325 54.304 29.4837 54.2704 29.6657L53.2031 35.4251L47.8775 38.4241C47.7239 38.5102 47.6234 38.6675 47.6096 38.8432L47.0669 45.6474L41.5091 55.8411H40.7988C40.5861 54.2602 39.4387 52.9748 37.9307 52.5592L37.0172 43.4371C36.8436 41.7503 35.6882 40.3071 34.0744 39.76L30.2111 38.4503C30.1327 38.2706 30.0398 38.0963 29.9155 37.9379L29.4486 37.3422C29.4502 37.3326 29.4563 37.3254 29.4574 37.3156L30.3898 30.001C30.7174 27.4325 28.8844 25.0656 26.3039 24.7233C25.036 24.5557 23.78 24.8915 22.7678 25.6711C22.4339 25.928 22.1445 26.2257 21.8953 26.5505C21.8893 26.5421 21.8853 26.5323 21.8788 26.5241C21.6286 26.1998 21.2667 25.9919 20.8596 25.9392C18.7572 25.662 16.8213 27.1464 16.5462 29.2392L16.2242 31.6934C16.1864 31.9834 16.3903 32.2492 16.6801 32.287C16.9729 32.3255 17.2354 32.1211 17.2737 31.8311L17.5955 29.3769C17.7947 27.8623 19.2003 26.7859 20.724 26.9887C20.8507 27.0053 20.9632 27.0697 21.0406 27.17C21.1167 27.2687 21.1501 27.3917 21.1337 27.5144L20.9627 28.8171L19.8999 36.7747C19.8992 36.7794 19.8989 36.7838 19.8982 36.7887C19.8278 36.998 19.6236 37.1394 19.3935 37.1095L17.759 36.8977C17.455 36.8587 17.1853 36.7035 16.9995 36.4625C16.8154 36.2236 16.7361 35.9279 16.7751 35.63L17.0229 33.7435C17.0607 33.4534 16.8567 33.1884 16.5669 33.1499C16.275 33.1137 16.0116 33.3165 15.9733 33.6058L15.7255 35.4923C15.6497 36.071 15.8044 36.6445 16.1609 37.1079C16.5196 37.5734 17.0387 37.8714 17.6232 37.9472L19.2577 38.1591C19.3242 38.1677 19.3907 38.1717 19.4563 38.1717C19.5912 38.1717 19.7207 38.1483 19.8467 38.1147C20.0256 40.3237 21.5481 42.269 23.773 42.9165L31.5201 45.171L32.39 52.976V56.3707C32.39 56.6629 32.6268 56.9002 32.9189 56.9002H34.9765L32.1224 58.2344L28.3619 60.1885L24.6013 61.7169H20.5826C20.9447 60.9728 21.0696 60.1386 20.9279 59.3075C20.8278 58.7206 20.5999 58.1774 20.2697 57.7017L24.4634 50.2441C24.4856 50.2044 24.5024 50.1627 24.514 50.119L25.9203 44.7552C25.9943 44.4721 25.8254 44.1833 25.5426 44.1093C25.2605 44.0335 24.9707 44.2036 24.8967 44.4866L23.5077 49.7849L19.5149 56.8845C19.4383 56.822 19.3623 56.7592 19.2806 56.7016L16.5667 54.7911L20.3677 48.4115C20.4062 48.3466 20.4305 48.2748 20.4389 48.2003L21.1321 42.1218C21.1655 41.8317 20.9566 41.5695 20.6666 41.5361C20.3747 41.5039 20.1141 41.7118 20.0809 42.0023L19.4005 47.9677L15.415 54.6567L13.3136 57.6041C13.2317 57.7189 13.1992 57.8613 13.2228 58.0003C13.2466 58.1392 13.3248 58.2626 13.4398 58.3443L18.2313 61.7166H15.4952C15.4005 61.7166 15.3074 61.7425 15.226 61.7906L10.2854 64.7105C10.0338 64.8592 9.95031 65.1835 10.0992 65.435C10.1979 65.6021 10.3743 65.6952 10.5553 65.6952C10.6466 65.6952 10.7397 65.6712 10.8239 65.6212L15.6397 62.7755H24.6384L29.6805 64.0476C29.723 64.0579 29.7666 64.0637 29.81 64.0637C29.8786 64.0637 29.947 64.05 30.0111 64.0236L33.0463 62.7755H36.8602C37.1523 62.7755 37.3891 62.5384 37.3891 62.2461C37.3891 61.9537 37.1523 61.7166 36.8602 61.7166H32.942C32.873 61.7166 32.8046 61.7304 32.7409 61.7568L29.7701 62.9785L26.3984 62.1278L28.8043 61.1482L32.5895 59.1831L37.475 56.8999H40.3091H41.8227C42.0164 56.8999 42.1944 56.7938 42.287 56.6239L47.678 46.7362L48.8204 47.7964L48.934 50.6618C48.9454 50.9464 49.1797 51.1697 49.4625 51.1697C49.4695 51.1697 49.4765 51.1693 49.4837 51.1693C49.7757 51.1578 50.0029 50.9114 49.9915 50.6193L49.8909 48.0869H51.1481C51.4402 48.0869 51.6771 47.8499 51.6771 47.5575C51.6771 47.2654 51.4402 47.0281 51.1481 47.0281H49.5481L48.1232 45.7058L48.6414 39.2077L53.5944 36.4189L55.0912 37.8585L54.3322 39.1675C54.1859 39.4202 54.272 39.7439 54.5244 39.8904C54.608 39.9392 54.6992 39.9623 54.7893 39.9623C54.9718 39.9623 55.1496 39.8675 55.2478 39.6981L56.0617 38.2944H58.5387C58.8309 38.2944 59.0677 38.0573 59.0677 37.765C59.0684 37.4728 58.8316 37.2358 58.5392 37.2358ZM15.9869 55.677L18.6714 57.567C19.321 58.0241 19.7519 58.7055 19.8847 59.4846C19.996 60.1374 19.8868 60.7936 19.5758 61.3687L14.484 57.7847L15.9869 55.677ZM23.5072 34.8264L23.8166 32.3983C24.2919 32.2252 25.355 31.9603 26.2167 32.6235L25.9915 34.3912C25.9733 34.5312 26.0125 34.6731 26.0998 34.7839L29.0822 38.5903C29.2929 38.8595 29.3853 39.1937 29.3429 39.5318C29.3002 39.871 29.1261 40.1737 28.8543 40.3832C28.2919 40.8125 27.4811 40.711 27.0471 40.1541L23.8434 36.0476C23.5707 35.6972 23.4517 35.2639 23.5072 34.8264ZM23.4132 26.5092C24.2004 25.9035 25.1774 25.6405 26.1649 25.7726C28.1697 26.0379 29.5939 27.8749 29.3403 29.8664L28.536 36.1771L27.0693 34.3053L27.6363 29.8519C27.6734 29.5626 27.4683 29.2973 27.1785 29.2607C26.8854 29.2268 26.6236 29.4282 26.587 29.7187L26.3637 31.4715C25.5031 31.0387 24.6018 31.1026 23.9629 31.2536L24.2308 29.1498C24.2679 28.8605 24.0628 28.5952 23.773 28.5586C23.4797 28.5247 23.2181 28.7261 23.1815 29.0166L22.4584 34.6922C22.4301 34.9132 22.4381 35.1316 22.463 35.3474C21.5722 35.3084 21.2455 35.1745 21.2107 35.1589C21.2068 35.1565 21.2021 35.1568 21.1981 35.1544L22.0139 28.9398C22.1387 27.9715 22.6355 27.1079 23.4132 26.5092ZM24.0681 41.9003C21.9464 41.2834 20.6139 39.2051 20.9345 37.0251C20.9501 36.9649 20.9678 36.9056 20.976 36.8426L21.0574 36.2219C21.3818 36.3141 21.9336 36.4056 22.8294 36.4149C22.8865 36.5106 22.9388 36.6086 23.0086 36.6979L26.2122 40.8051C26.6735 41.3963 27.3672 41.7064 28.0686 41.7064C28.5687 41.7064 29.0727 41.5485 29.4985 41.2225C29.9964 40.8389 30.314 40.2857 30.3924 39.6643C30.3938 39.6529 30.3919 39.6414 30.3933 39.6298L33.7342 40.7624C34.9576 41.1768 35.8328 42.2695 35.9644 43.5444L36.8525 52.4136H33.3917L32.5325 44.7029C32.5087 44.4906 32.3596 44.313 32.1545 44.2533L24.0681 41.9003ZM37.3579 55.8413H33.4477V53.4725H36.8819C38.2994 53.4725 39.4826 54.495 39.7318 55.8413H37.3579Z"
          fill="#F47B3D"/>
    <path d="M65.3292 30.7067L64.5966 31.5231L62.9597 28.8104C62.8088 28.56 62.4842 28.479 62.2336 28.6307C61.9832 28.7817 61.903 29.1067 62.0539 29.3568L63.7232 32.1235L60.8096 33.1396C60.5338 33.2355 60.3879 33.5375 60.4843 33.8137C60.5604 34.0319 60.765 34.1686 60.9839 34.1686C61.0415 34.1686 61.1003 34.1588 61.1582 34.1388L64.6871 32.9079C64.6932 32.9058 64.6971 32.9002 64.703 32.8981C64.744 32.8823 64.7786 32.8545 64.8152 32.8281C64.8416 32.809 64.8707 32.795 64.8934 32.7714C64.8973 32.7672 64.9032 32.7658 64.9069 32.7616L66.1167 31.413C66.312 31.196 66.2938 30.8614 66.0764 30.6661C65.8584 30.4701 65.5241 30.489 65.3292 30.7067Z"
          fill="#F47B3D"/>
    <path d="M41.715 29.9666C41.5465 29.9988 41.4042 30.1108 41.333 30.2669L39.2335 34.8717L34.7532 35.9912C34.47 36.0619 34.2973 36.3494 34.3682 36.6324C34.4282 36.873 34.644 37.0338 34.8811 37.0338C34.9233 37.0338 34.9667 37.0286 35.0097 37.0177L39.7375 35.8361C39.8936 35.7971 40.0238 35.6891 40.0905 35.5421L42.1823 30.9545L47.6848 29.9017C47.9718 29.8471 48.1601 29.5699 48.105 29.2829C48.05 28.9952 47.7718 28.8088 47.4862 28.8627L41.715 29.9666Z"
          fill="#F47B3D"/>
    <path d="M12.1649 50.3231L13.7334 44.1624L16.4713 42.0416C16.7023 41.8624 16.7446 41.5301 16.5656 41.2994C16.3869 41.0674 16.0544 41.0261 15.8234 41.2046L12.9417 43.4374C12.8484 43.5097 12.7821 43.6115 12.7532 43.7256L11.2036 49.8123L4.14761 52.9103C3.87998 53.0279 3.75841 53.3396 3.87578 53.6077C3.96305 53.8058 4.15718 53.9241 4.36065 53.9241C4.43158 53.9241 4.50391 53.9096 4.57298 53.8793L11.8651 50.6775C12.0142 50.6119 12.1246 50.481 12.1649 50.3231Z"
          fill="#F47B3D"/>
</svg>
