<svg width="70" height="70" viewBox="0 0 70 70" fill="none" xmlns="http://www.w3.org/2000/svg">
    <path d="M66.1517 63.3078C65.793 62.6521 65.4085 62.0069 65.0069 61.3725C65.0046 61.3685 65.0048 61.3641 65.0023 61.3601C64.9999 61.3564 64.9962 61.3548 64.9939 61.3513C64.5062 60.5822 63.9915 59.8295 63.448 59.1036C63.2733 58.87 62.9426 58.8231 62.7098 58.9972C62.4767 59.1717 62.4288 59.5026 62.6034 59.7354C63.0234 60.2966 63.424 60.875 63.8099 61.4637C58.8567 64.3396 54.7384 62.9935 51.4111 61.897C48.378 60.896 45.759 60.032 44.1227 63.2396C43.0598 65.3221 41.4106 65.3217 40.2162 64.9542C38.3143 64.3692 36.9213 62.6941 37.0198 61.9113C37.0716 61.498 37.6743 61.3825 38.171 61.3578C41.2268 61.2085 42.9453 59.4291 43.4887 57.9504C43.8112 57.0731 43.7276 56.2903 43.2654 55.857C43.0342 55.64 42.512 55.3369 41.6127 55.7356C41.2919 55.8775 40.51 56.1638 40.1859 55.727C39.8102 55.2223 40.0568 53.9581 41.1199 52.7179C42.1795 51.4817 42.6142 50.2159 42.4119 48.9552C42.2483 47.9372 41.6939 47.1149 41.1449 46.5225C47.7809 47.698 53.9273 50.7869 58.8705 55.5212C59.0807 55.7233 59.4151 55.7151 59.6162 55.5046C59.8176 55.2946 59.8106 54.9605 59.6001 54.7589C58.1357 53.3566 56.564 52.1019 54.9125 50.9852V18.1286C55.2137 17.9704 62.1687 14.2413 62.7319 8.64897C62.7539 8.46697 62.7681 8.2845 62.7681 8.09667C62.7681 5.56197 60.6947 3.5 58.1462 3.5C56.792 3.5 55.5369 4.07867 54.6661 5.07663C53.7946 4.07867 52.5397 3.5 51.1857 3.5C48.637 3.5 46.5636 5.56197 46.5647 8.06283C46.5519 8.26023 46.3554 12.8506 53.8573 17.7681V50.2971C50.548 48.2274 46.928 46.7269 43.1247 45.8481V38.35C44.7725 37.3781 49.9691 33.9516 50.4528 29.1478C50.4747 28.9669 50.4889 28.7833 50.4889 28.5955C50.4889 26.0615 48.4155 24 45.8668 24C44.5119 24 43.2572 24.5779 42.3871 25.5754C41.5161 24.5779 40.261 24 38.9067 24C36.3583 24 34.2849 26.0615 34.286 28.5616C34.273 28.7635 34.0644 33.5501 42.07 38.5842V45.6185C39.7892 45.1645 37.4498 44.9274 35.0766 44.9274C21.9537 44.9274 9.98064 52.0924 3.82974 63.6265C3.69277 63.8834 3.78961 64.2033 4.04697 64.34C4.12584 64.3823 4.21101 64.4023 4.29454 64.4023C4.48307 64.4023 4.66577 64.3011 4.76027 64.123C5.36297 62.9928 6.02587 61.9082 6.73917 60.8676C7.06374 60.704 8.23391 60.1757 9.16934 60.5526C9.73471 60.7798 10.1451 61.3251 10.389 62.1728C11.0059 64.32 13.4951 65.5305 15.7687 65.5305C16.0788 65.5305 16.3852 65.5081 16.6817 65.4624C18.2894 65.2146 19.2675 64.2857 19.2353 63.038C19.1957 61.5193 19.7965 60.1664 20.7305 59.6724C21.5582 59.2359 22.6292 59.4589 23.8257 60.3209C24.8619 61.0659 26.0785 61.0099 27.1645 60.1645C28.6104 59.0382 29.7073 56.4646 29.0115 54.7066C28.7451 54.0349 27.9849 52.9382 25.8611 53.1305C21.6475 53.5201 18.54 52.6463 18.0771 51.6138C17.851 51.1089 18.3218 50.5038 18.7759 50.071C23.6906 47.4339 29.2661 45.9825 35.0763 45.9825C36.4647 45.9825 37.8392 46.074 39.1989 46.2357C39.2362 46.2826 39.2784 46.3267 39.3326 46.3596C39.3503 46.3706 41.1064 47.4591 41.3707 49.1279C41.5196 50.0663 41.1656 51.0433 40.3186 52.031C38.9959 53.5745 38.5929 55.3532 39.3391 56.3563C39.5979 56.7049 40.3793 57.4357 42.0392 56.7002C42.3115 56.5794 42.4914 56.5773 42.5437 56.6265C42.6181 56.6963 42.7052 57.0232 42.4982 57.5862C42.0658 58.7629 40.6598 60.1797 38.119 60.3041C36.4019 60.3883 36.0372 61.2645 35.9726 61.7794C35.788 63.2508 37.6995 65.2836 39.9056 65.9624C40.4134 66.118 40.9034 66.1948 41.3707 66.1948C42.9322 66.1948 44.2358 65.3375 45.0621 63.7191C46.2355 61.4196 47.8434 61.8305 51.0802 62.8985C54.4344 64.005 58.9953 65.495 64.3739 62.3546C64.6688 62.8355 64.9563 63.3208 65.226 63.8136C65.3219 63.9889 65.5028 64.0883 65.6892 64.0883C65.7748 64.0883 65.8614 64.067 65.9419 64.0229C66.1976 63.8834 66.2914 63.563 66.1517 63.3078ZM47.6182 8.09667C47.6182 6.1439 49.2187 4.55537 51.1857 4.55537C52.427 4.55537 53.5608 5.1849 54.2183 6.23957C54.4108 6.55037 54.9213 6.5492 55.1134 6.23957C55.7707 5.1849 56.9044 4.55537 58.146 4.55537C60.113 4.55537 61.713 6.14413 61.713 8.09667C61.713 8.24087 61.7013 8.38227 61.6831 8.53277C61.2335 12.9978 55.9321 16.3233 54.6819 17.0485C47.4948 12.4381 47.6154 8.16923 47.6182 8.09667ZM35.3395 28.5955C35.3395 26.6434 36.9397 25.0553 38.9065 25.0553C40.1483 25.0553 41.2823 25.6842 41.9396 26.7391C42.036 26.8935 42.2051 26.9873 42.3871 26.9873H42.3874C42.5694 26.9869 42.7385 26.8928 42.8349 26.7384C43.491 25.6842 44.6243 25.0553 45.8666 25.0553C47.8336 25.0553 49.434 26.6434 49.434 28.5955C49.434 28.7397 49.4224 28.8811 49.4042 29.0316C48.9545 33.4966 43.6532 36.8221 42.4035 37.5473C35.2161 32.9373 35.3367 28.668 35.3395 28.5955ZM17.115 52.0457C17.9875 53.9926 22.3123 54.5169 25.9581 54.1814C27.0534 54.0773 27.7508 54.387 28.0311 55.0947C28.4977 56.2742 27.7478 58.3732 26.5165 59.3325C25.7967 59.8922 25.099 59.938 24.4426 59.4648C22.4915 58.0603 21.0787 58.2962 20.2377 58.7403C18.9378 59.4277 18.1305 61.1256 18.1811 63.0656C18.2068 64.0528 17.0292 64.3412 16.5217 64.4196C14.5341 64.7304 11.9427 63.7593 11.4028 61.8809C11.0649 60.7054 10.4459 59.9289 9.56344 59.574C8.96704 59.3334 8.34077 59.3297 7.788 59.42C10.3421 56.0812 13.4652 53.2754 16.9827 51.1047C16.9358 51.4757 17.0023 51.7946 17.115 52.0457Z"
          fill="#F47B3D"/>
    <path d="M59.9956 55.8862C59.7846 56.0871 59.7767 56.4207 59.9778 56.6319C60.4837 57.1625 60.9826 57.7209 61.4597 58.2916C61.5643 58.4164 61.7138 58.4811 61.8646 58.4811C61.9838 58.4811 62.104 58.4405 62.2029 58.3581C62.4264 58.171 62.4558 57.8385 62.2689 57.6152C61.7768 57.0269 61.2628 56.4511 60.7413 55.9041C60.5404 55.6927 60.2063 55.6855 59.9956 55.8862Z"
          fill="#F47B3D"/>
    <path d="M35.667 50.1146C34.8553 48.8418 32.6218 47.9948 30.7162 48.8149C29.8827 49.1738 29.7035 49.6916 29.6998 50.063C29.6895 51.1739 31.2442 51.9654 31.7209 52.1817C32.3864 52.4834 33.2189 52.7219 33.974 52.7219C34.5344 52.7219 35.0527 52.5903 35.4279 52.2554C36.0583 51.6924 36.15 50.8725 35.667 50.1146ZM34.7253 51.4686C34.337 51.8142 33.2327 51.7085 32.1563 51.2208C31.1625 50.7705 30.753 50.2509 30.7547 50.0728C30.7551 50.0117 30.8739 49.8955 31.1336 49.7833C32.6265 49.1411 34.2624 49.8743 34.7776 50.6818C35.0783 51.1534 34.8312 51.3744 34.7253 51.4686Z"
          fill="#F47B3D"/>
    <path d="M44.1071 33.6693V32.7325H45.053C45.3442 32.7325 45.5804 32.4961 45.5804 32.2049V30.2528C45.5804 29.9616 45.3442 29.7253 45.053 29.7253H44.1071V28.7884C44.1071 28.4972 43.871 28.2609 43.5798 28.2609H41.6149C41.3237 28.2609 41.0875 28.4972 41.0875 28.7884V29.7253H40.1418C39.8506 29.7253 39.6145 29.9616 39.6145 30.2528V32.2049C39.6145 32.4961 39.8506 32.7325 40.1418 32.7325H41.0875V33.6693C41.0875 33.9605 41.3237 34.1969 41.6149 34.1969H43.5798C43.871 34.1971 44.1071 33.9607 44.1071 33.6693ZM43.0522 32.2049V33.1417H42.142V32.2049C42.142 31.9137 41.9058 31.6773 41.6146 31.6773H40.6689V30.7806H41.6146C41.9058 30.7806 42.142 30.5443 42.142 30.2531V29.3162H43.0522V30.2531C43.0522 30.5443 43.2883 30.7806 43.5795 30.7806H44.5255V31.6773H43.5795C43.2883 31.6773 43.0522 31.9137 43.0522 32.2049Z"
          fill="#F47B3D"/>
    <path d="M16.9832 14.1731C17.0245 14.2475 17.0831 14.3105 17.154 14.3574L20.1376 16.3249C21.0329 16.9155 22.0608 17.2132 23.0921 17.2132C23.9769 17.2132 24.8643 16.9941 25.6732 16.5522L40.1994 8.52247C41.4907 7.7401 42.057 7.18103 41.567 6.29577C40.4061 4.1995 36.3667 4.66593 34.6416 5.60837L29.2414 8.5619L25.1678 7.70697C24.8843 7.65027 24.6029 7.82993 24.5432 8.11507C24.4835 8.39997 24.6659 8.67927 24.9511 8.73947L29.2155 9.63453C29.2521 9.642 29.2885 9.64597 29.3244 9.64597C29.3356 9.64597 29.3454 9.64107 29.3564 9.6406C29.3774 9.6392 29.3972 9.63337 29.418 9.62963C29.4619 9.6217 29.5034 9.61027 29.5433 9.5916C29.554 9.58647 29.5659 9.58693 29.5767 9.58133L32.9791 7.72027L33.6756 8.97817C33.7718 9.15223 33.9517 9.25047 34.1374 9.25047C34.2237 9.25047 34.3115 9.22923 34.3924 9.18397C34.647 9.04327 34.7396 8.7222 34.5982 8.4674L33.9043 7.21417L34.6766 6.79183L35.3729 8.04973C35.4693 8.2238 35.6494 8.32203 35.8351 8.32203C35.9215 8.32203 36.0092 8.3008 36.0902 8.25553C36.3447 8.11483 36.4374 7.79377 36.2962 7.53897L35.6209 6.3191C37.2736 5.67137 39.9929 5.62983 40.6439 6.80583C40.6577 6.83033 40.667 6.84877 40.6738 6.86183C40.6171 6.94257 40.411 7.1612 39.6711 7.6092L25.165 15.6275C23.7594 16.3961 22.0552 16.3263 20.7184 15.445L17.8433 13.5485L17.4062 12.7605L21.8097 13.6847C21.9327 13.7092 22.0603 13.691 22.1711 13.6315L25.3683 11.8829L27.5002 13.2864C27.5898 13.3455 27.6902 13.3735 27.7898 13.3735C27.9615 13.3735 28.1295 13.2899 28.231 13.1359C28.3911 12.8928 28.3237 12.5654 28.0803 12.4051L22.1123 8.47603L21.9037 8.10013L23.0919 8.3491C23.3747 8.40627 23.6565 8.2273 23.7163 7.941C23.776 7.6561 23.5935 7.3768 23.3082 7.3166L20.9921 6.8308C20.7907 6.7902 20.5824 6.86743 20.4596 7.03403C20.3371 7.19993 20.3227 7.42207 20.4228 7.6029L21.2525 9.10113C21.2938 9.17557 21.3526 9.23903 21.4235 9.28593L24.3703 11.2261L21.8358 12.6121L16.4944 11.4909C16.2916 11.4487 16.0839 11.5276 15.9617 11.6942C15.8392 11.8601 15.8247 12.0822 15.9248 12.263L16.9832 14.1731Z"
          fill="#F47B3D"/>
    <path d="M56.3857 13.1701V12.2337H57.3316C57.6228 12.2337 57.8589 11.9973 57.8589 11.7061V9.75405C57.8589 9.46285 57.6228 9.22649 57.3316 9.22649H56.3857V8.28965C56.3857 7.99845 56.1495 7.76208 55.8583 7.76208H53.8934C53.6022 7.76208 53.3661 7.99845 53.3661 8.28965V9.22649H52.4202C52.129 9.22649 51.8928 9.46285 51.8928 9.75405V11.7061C51.8928 11.9973 52.129 12.2337 52.4202 12.2337H53.3661V13.1701C53.3661 13.4613 53.6022 13.6976 53.8934 13.6976H55.8583C56.1495 13.6976 56.3857 13.4613 56.3857 13.1701ZM55.331 11.7061V12.6425H54.4208V11.7061C54.4208 11.4149 54.1846 11.1786 53.8934 11.1786H52.9475V10.2819H53.8934C54.1846 10.2819 54.4208 10.0455 54.4208 9.75429V8.81745H55.331V9.75429C55.331 10.0455 55.5671 10.2819 55.8583 10.2819H56.8043V11.1786H55.8583C55.5669 11.1783 55.331 11.4147 55.331 11.7061Z"
          fill="#F47B3D"/>
    <path d="M14.5656 33.7031V50.2635C14.5656 50.5547 14.8017 50.7911 15.0929 50.7911C15.3841 50.7911 15.6203 50.5547 15.6203 50.2635V33.6693C15.6203 33.6058 15.6046 33.5466 15.5841 33.4901C17.1911 32.5474 22.4611 29.1065 22.9486 24.2671C22.9705 24.0863 22.9847 23.902 22.9847 23.7148C22.9847 21.1801 20.9113 19.1182 18.3626 19.1182C17.0081 19.1182 15.753 19.6968 14.8829 20.6948C14.0119 19.6968 12.7568 19.1182 11.4025 19.1182C8.85407 19.1182 6.78067 21.1801 6.78183 23.681C6.76853 23.8828 6.55993 28.669 14.5656 33.7031ZM7.83533 23.7151C7.83533 21.7623 9.43553 20.1738 11.4023 20.1738C12.6441 20.1738 13.7779 20.8033 14.4354 21.858C14.5315 22.0124 14.7009 22.1069 14.8829 22.1069C15.0649 22.1065 15.2346 22.0124 15.3307 21.858C15.9868 20.8033 17.1201 20.1738 18.3624 20.1738C20.3294 20.1738 21.9298 21.7625 21.9298 23.7151C21.9298 23.8588 21.9182 24.0007 21.9 24.1512C21.4503 28.6162 16.149 31.9412 14.899 32.6662C7.7119 28.0565 7.8323 23.7876 7.83533 23.7151Z"
          fill="#F47B3D"/>
    <path d="M12.6374 27.8521H13.5831V28.7884C13.5831 29.0796 13.8193 29.316 14.1105 29.316H16.0749C16.3661 29.316 16.6022 29.0796 16.6022 28.7884V27.8521H17.5489C17.8401 27.8521 18.0762 27.6157 18.0762 27.3245V25.3717C18.0762 25.0805 17.8401 24.8442 17.5489 24.8442H16.6022V23.9078C16.6022 23.6166 16.3661 23.3802 16.0749 23.3802H14.1105C13.8193 23.3802 13.5831 23.6166 13.5831 23.9078V24.8442H12.6374C12.3462 24.8442 12.1101 25.0805 12.1101 25.3717V27.3245C12.1101 27.6157 12.346 27.8521 12.6374 27.8521ZM13.1648 25.8993H14.1105C14.4017 25.8993 14.6378 25.663 14.6378 25.3717V24.4354H15.5476V25.3717C15.5476 25.663 15.7837 25.8993 16.0749 25.8993H17.0215V26.7967H16.0749C15.7837 26.7967 15.5476 27.0331 15.5476 27.3243V28.2606H14.6378V27.3243C14.6378 27.0331 14.4017 26.7967 14.1105 26.7967H13.1648V25.8993Z"
          fill="#F47B3D"/>
</svg>
