<svg width="70" height="70" viewBox="0 0 70 70" fill="none" xmlns="http://www.w3.org/2000/svg">
    <path d="M61.5423 31.2784C61.5038 30.9695 61.2166 30.7499 60.9139 30.7884C60.8596 30.7952 55.4147 31.4789 50.2884 33.0371C49.9907 33.1278 49.8227 33.4424 49.9132 33.7399C49.9872 33.9828 50.2109 34.1396 50.4522 34.1396C50.5061 34.1396 60.9989 31.9129 61.0521 31.9061C61.3608 31.8681 61.5801 31.5869 61.5423 31.2784Z"
          fill="#F47B3D"/>
    <path d="M48.2647 33.7084C47.4702 33.9954 46.7263 34.2973 46.0527 34.6055C45.4096 34.9 45.8639 35.9325 46.5221 35.6299C47.1671 35.3342 47.882 35.044 48.6473 34.7675C48.9402 34.6618 49.0916 34.3391 48.9859 34.0465C48.8797 33.7539 48.5552 33.6024 48.2647 33.7084Z"
          fill="#F47B3D"/>
    <path d="M43.3529 42.522C42.0168 40.8031 41.282 39.6623 42.9457 37.9459C43.3963 37.4811 43.9964 37.0184 44.7293 36.5709C44.9951 36.4089 45.0788 36.0624 44.9169 35.7967C44.755 35.5316 44.4089 35.4464 44.1425 35.6093C43.3284 36.1058 42.6529 36.6285 42.1365 37.1619C39.7075 39.6681 41.3002 41.7173 42.4634 43.2136C43.2054 44.168 43.8466 44.9926 43.6028 45.7721C43.2122 47.0228 40.5949 48.4153 35.8248 49.9117C33.7204 50.5727 31.5266 51.1418 29.3062 51.6034C28.8654 51.6951 28.7063 52.2663 29.0411 52.5715C29.1727 52.6914 29.3606 52.7425 29.5349 52.7066C31.7928 52.2376 34.0226 51.6589 36.1625 50.9869C41.5228 49.3055 44.1495 47.801 44.678 46.1084C45.0977 44.7665 44.2108 43.6255 43.3529 42.522Z"
          fill="#F47B3D"/>
    <path d="M10.159 53.0232C10.4488 53.0232 10.695 52.8011 10.7195 52.5066C10.7458 52.1967 10.5153 51.9244 10.2054 51.8985C6.16153 51.5609 3.64643 50.7613 3.62123 50.7533C3.32536 50.6574 3.00756 50.8203 2.91213 51.1164C2.8167 51.4123 2.97886 51.7294 3.2745 51.8255C3.3809 51.8598 5.92656 52.6718 10.1112 53.0213C10.1273 53.0227 10.1431 53.0232 10.159 53.0232Z"
          fill="#F47B3D"/>
    <path d="M57.6256 61.5429C55.4461 62.6925 52.7956 63.7871 49.7483 64.7953C49.0758 65.0177 49.4125 66.091 50.1016 65.8649C53.2091 64.8371 55.9167 63.7183 58.1513 62.5392C58.4264 62.3941 58.5321 62.0532 58.3868 61.7783C58.2416 61.5035 57.9005 61.3978 57.6256 61.5429Z"
          fill="#F47B3D"/>
    <path d="M61.1291 59.3526C60.5295 59.8074 59.8505 60.2633 59.1103 60.7076C58.5044 61.0713 59.0658 62.0467 59.6909 61.6733C60.4646 61.2083 61.1779 60.7293 61.81 60.2505C62.0576 60.0624 62.1063 59.7091 61.9183 59.4613C61.7304 59.2128 61.3772 59.1641 61.1291 59.3526Z"
          fill="#F47B3D"/>
    <path d="M67.8833 31.8146C67.8149 31.5115 67.5111 31.3197 67.2096 31.3893C66.7311 31.4971 55.476 34.0934 54.6171 39.1852C54.234 41.4574 55.9343 43.7867 59.6706 46.1089C62.9529 48.1489 64.8135 50.4339 65.0513 52.7171C65.2419 54.5499 64.3942 56.3832 62.5313 58.1661C62.0163 58.6589 62.781 59.487 63.3099 58.9802C65.4377 56.9439 66.4009 54.7973 66.1722 52.6002C65.8971 49.9579 63.8545 47.3822 60.2647 45.1515C56.9549 43.0944 55.4282 41.1501 55.7275 39.3728C56.3363 35.7619 64.4015 33.1789 67.4577 32.4883C67.761 32.4199 67.9516 32.1182 67.8833 31.8146Z"
          fill="#F47B3D"/>
    <path d="M49.9267 10.1869C50.3553 10.7497 51.2712 10.0924 50.8227 9.50484C50.6038 9.2169 50.4883 8.8732 50.4883 8.51037C50.4883 7.59804 51.2364 6.85604 52.1557 6.85604C52.9724 6.85604 53.6642 7.43447 53.8012 8.23154C53.8532 8.53837 54.1491 8.74464 54.451 8.6919C54.7579 8.6394 54.9639 8.3482 54.9114 8.0416C54.6823 6.7018 53.5233 5.72974 52.156 5.72974C50.615 5.72974 49.3613 6.97714 49.3613 8.5106C49.3613 9.1217 49.5569 9.7013 49.9267 10.1869Z"
          fill="#F47B3D"/>
    <path d="M51.9759 5.49015C52.2869 5.49015 52.5394 5.23792 52.5394 4.92688V3.36332C52.5394 3.05228 52.2869 2.80005 51.9759 2.80005C51.6648 2.80005 51.4124 3.05228 51.4124 3.36332V4.92688C51.4124 5.23792 51.6648 5.49015 51.9759 5.49015Z"
          fill="#F47B3D"/>
    <path d="M47.2554 9.13898H48.3042C48.6153 9.13898 48.8677 8.88675 48.8677 8.57572C48.8677 8.26468 48.6153 8.01245 48.3042 8.01245H47.2554C46.9444 8.01245 46.6919 8.26468 46.6919 8.57572C46.6919 8.88675 46.9444 9.13898 47.2554 9.13898Z"
          fill="#F47B3D"/>
    <path d="M54.7859 6.45898C54.9196 6.46645 55.0591 6.42025 55.183 6.29705L56.1511 5.33502C56.3718 5.11592 56.3723 4.75915 56.1534 4.53865C55.9341 4.31768 55.5771 4.31652 55.3564 4.53632C55.3564 4.53632 54.3913 5.49532 54.3883 5.49835C54.0058 5.87822 54.3656 6.43518 54.7859 6.45898Z"
          fill="#F47B3D"/>
    <path d="M49.1295 10.7245C49.1295 10.7245 48.142 11.705 48.1392 11.7078C47.6338 12.2095 48.4132 13.0252 48.9326 12.5072L49.9228 11.5239C50.144 11.3048 50.1454 10.9481 49.9259 10.7271C49.7063 10.5061 49.3488 10.5054 49.1295 10.7245Z"
          fill="#F47B3D"/>
    <path d="M49.1288 6.29652C49.6356 6.80005 50.4457 6.01628 49.9233 5.49758L48.9111 4.49192C48.6904 4.27212 48.3336 4.27352 48.114 4.49425C47.8952 4.71498 47.8959 5.07152 48.1164 5.29062C48.1166 5.29085 49.1274 6.29512 49.1288 6.29652Z"
          fill="#F47B3D"/>
    <path d="M54.0132 9.49042C53.5097 9.39499 52.9954 9.46102 52.5066 9.69039C51.8453 10.0003 51.3483 10.595 51.1766 11.2827C50.9901 12.0335 51.1516 12.8073 51.6192 13.4055C52.0899 14.0075 52.7989 14.3526 53.564 14.3526H56.4154C57.3366 14.3526 58.1971 13.9434 58.7765 13.2296C59.3517 12.5214 59.5724 11.5956 59.3822 10.6888C59.1388 9.52962 58.1885 8.59862 57.0181 8.37252C55.864 8.15039 54.7095 8.59255 54.0132 9.49042ZM56.8041 9.47852C57.5351 9.61969 58.128 10.1988 58.2797 10.9201C58.402 11.5013 58.2676 12.0692 57.9019 12.5193C57.5377 12.9683 56.9954 13.2259 56.4154 13.2259H53.564C53.1478 13.2259 52.7621 13.0383 52.5066 12.7111C52.2499 12.3833 52.1661 11.9722 52.2695 11.5547C52.36 11.1935 52.627 10.8778 52.9847 10.7103C53.151 10.6324 53.3153 10.5948 53.4798 10.5834C53.4343 10.7609 53.4012 10.9422 53.3888 11.1282C53.3405 11.8438 54.4626 11.9346 54.5123 11.2047C54.5312 10.9278 54.6096 10.6648 54.7471 10.4186C55.15 9.69599 55.9788 9.31705 56.8041 9.47852Z"
          fill="#F47B3D"/>
    <path d="M31.3068 24.6807C31.4815 25.7232 32.0478 26.6344 32.8402 27.2998H27.846C27.5349 27.2998 27.2825 27.5521 27.2825 27.8631C27.2825 28.1741 27.5349 28.4264 27.846 28.4264H67.1888C67.4998 28.4264 67.7523 28.1741 67.7523 27.8631C67.7523 27.5521 67.4998 27.2998 67.1888 27.2998H65.8329C66.2979 26.8157 66.6234 26.2071 66.7268 25.5228C66.9006 24.3713 66.499 23.2583 65.6555 22.4841C65.6467 21.7803 65.4101 21.1032 64.9474 20.5532C64.5369 20.0651 63.9984 19.7277 63.3978 19.5648C63.1311 17.5946 61.4588 16.1096 59.4071 16.1096C57.9292 16.1096 56.566 16.9342 55.8681 18.2071C55.1492 18.0316 54.4005 18.0573 53.6732 18.2866C52.6297 18.6152 51.7605 19.3747 51.2883 20.3696C50.952 21.0761 50.8263 21.81 50.9124 22.5557C50.0915 23.3649 49.7277 24.5386 49.9583 25.6943C50.0826 26.3133 50.3883 26.8591 50.8106 27.3001H44.5965L45.8166 24.6977C45.8752 24.5733 45.8864 24.4322 45.8479 24.3003L45.1915 22.0543L46.3766 20.4235C46.5593 20.172 46.5031 19.8196 46.252 19.6369C45.9995 19.4535 45.6481 19.5095 45.4647 19.7615L44.1177 21.6161C44.0157 21.757 43.9838 21.9376 44.0328 22.1051L44.7069 24.4119L43.3526 27.2998H42.7527L42.678 24.116C42.6738 23.9352 42.5833 23.7674 42.4342 23.665L39.5259 21.666L40.0845 19.7009C40.1702 19.4017 39.9966 19.0902 39.697 19.0051C39.3969 18.9183 39.0856 19.0937 39.0014 19.3929L38.3315 21.747C38.2648 21.9796 38.3548 22.2283 38.5541 22.3653L41.559 24.4303L41.6262 27.3001H35.9093C34.1868 27.3001 32.6862 26.0937 32.4179 24.4945C32.2107 23.2615 32.6629 22.0589 33.6268 21.2775C33.7894 21.1461 33.8653 20.9359 33.8249 20.731C33.6947 20.0688 33.7234 19.4097 33.911 18.7717C33.999 18.4735 33.8284 18.1602 33.5295 18.0724C33.2306 17.9845 32.9177 18.1553 32.8302 18.4539C32.6218 19.1621 32.5668 19.8896 32.6652 20.6221C31.556 21.6604 31.0506 23.1533 31.3068 24.6807ZM51.0633 25.4728C50.8904 24.6053 51.1924 23.7585 51.8714 23.2079C52.0333 23.076 52.1091 22.8656 52.0688 22.6609C51.9472 22.047 52.0265 21.4387 52.3058 20.8528C52.6444 20.1395 53.266 19.5956 54.0117 19.3609C54.6639 19.1556 55.3399 19.1745 55.9671 19.4164C55.9757 19.4197 55.9855 19.4183 55.9944 19.4211C56.3784 19.5714 56.7338 19.8033 57.0196 20.0968C57.5073 20.5978 58.3443 19.842 57.8265 19.3103C57.5649 19.0419 57.2597 18.8144 56.9317 18.6273C57.4525 17.7803 58.39 17.2357 59.4071 17.2357C60.801 17.2357 61.9516 18.1847 62.24 19.4799C61.8256 19.5266 61.424 19.6484 61.0586 19.8579C60.7884 20.0126 60.6949 20.357 60.8496 20.6267C61.0047 20.896 61.3484 20.9905 61.6184 20.8351C62.7529 20.1832 64.2707 20.8878 64.511 22.1712C64.5724 22.499 64.4424 22.9444 64.7509 23.1834C65.4171 23.7039 65.7393 24.5152 65.6128 25.3541C65.4448 26.4622 64.4107 27.2975 63.2051 27.2994H60.255L60.7817 25.5403C60.8129 25.4364 60.8134 25.3254 60.7828 25.2208L60.3281 23.6657L61.1429 22.5447C61.3256 22.2932 61.2693 21.9409 61.0183 21.7582C60.7653 21.5745 60.4144 21.6305 60.231 21.8828L59.2543 23.2272C59.1523 23.3682 59.1203 23.5488 59.1693 23.7163L59.6547 25.3774L59.0793 27.2996H58.4906L58.4395 25.127C58.4353 24.9425 58.341 24.7717 58.187 24.6702L56.2116 23.3661V21.6077C56.2116 21.2966 55.9591 21.0444 55.6481 21.0444C55.3371 21.0444 55.0846 21.2966 55.0846 21.6077V23.6694C55.0846 23.8586 55.18 24.0353 55.3375 24.1393L57.3204 25.4479L57.364 27.2996H53.4373C52.2734 27.2982 51.2752 26.5303 51.0633 25.4728Z"
          fill="#F47B3D"/>
    <path d="M34.522 17.4452C35.0466 16.7022 35.8026 16.1462 36.6503 15.8797C38.1217 15.4166 39.94 15.7878 41.0229 16.9188C41.1335 17.0343 41.2822 17.0924 41.4301 17.0924C41.5701 17.0924 41.7106 17.0403 41.8195 16.9358C42.0445 16.7207 42.0524 16.3639 41.8373 16.1394C41.4469 15.7318 40.9728 15.4047 40.4494 15.1496C41.1781 13.811 42.6033 12.939 44.1561 12.939C46.4512 12.939 48.3424 14.7938 48.3725 17.0737C48.3748 17.2461 48.4567 17.4074 48.5937 17.5124C48.7099 17.6022 48.8571 17.6433 49.0001 17.6258C49.3896 17.5866 50.0667 17.7704 50.2935 17.9807C50.5107 18.1809 50.6804 18.455 51.015 18.4284C51.47 18.3923 51.6935 17.8346 51.3918 17.4937C51.291 17.3794 51.1797 17.266 51.0593 17.1542C50.6762 16.7988 50.0324 16.5809 49.464 16.5151C49.1548 13.8768 46.8798 11.8127 44.1561 11.8127C42.1392 11.8127 40.284 12.9698 39.3842 14.7408C38.383 14.4643 37.3311 14.4846 36.3129 14.805C35.2309 15.1447 34.2677 15.8517 33.6015 16.7956C33.4223 17.0494 33.483 17.4013 33.7366 17.5807C33.9903 17.7595 34.3417 17.7 34.522 17.4452Z"
          fill="#F47B3D"/>
    <path d="M10.0117 28.4263C10.3227 28.4263 10.5752 28.1741 10.5752 27.8631C10.5752 27.552 10.3227 27.2998 10.0117 27.2998H8.25816C5.77106 27.2998 3.63536 25.2969 3.59336 22.9262C3.56653 21.3626 4.34773 19.9272 5.68379 19.0865C5.88796 18.9579 5.98759 18.7134 5.93136 18.4784C5.72603 17.6221 5.75776 16.6381 7.36659 15.2477C7.75603 14.9105 8.27123 14.7495 8.85129 14.8057C9.15929 14.8057 9.41059 14.5582 9.41479 14.2502C9.45446 11.2777 11.9201 8.8597 14.9117 8.8597C17.1738 8.8597 19.2372 10.2732 20.0459 12.377C20.0991 12.5167 20.206 12.6292 20.343 12.6896C20.4788 12.7505 20.6346 12.754 20.7739 12.7006C22.2047 12.1497 23.7389 12.2104 25.2089 12.8779C27.4062 13.8757 28.6191 16.4661 28.1568 18.7955C28.1158 19.0006 28.1923 19.2115 28.3549 19.3429C28.7252 19.6425 29.0444 19.9976 29.303 20.3983C29.471 20.6598 29.8196 20.7347 30.0816 20.5663C30.3427 20.3976 30.4178 20.049 30.2491 19.7876C29.9869 19.3805 29.6747 19.0113 29.3188 18.6865C29.246 18.62 29.3895 17.5784 29.3809 17.4121C29.3541 16.8994 29.2631 16.3917 29.1158 15.9001C28.5922 14.1503 27.3497 12.6115 25.6746 11.8517C24.0959 11.1356 22.4493 11.0075 20.8815 11.4747C19.7886 9.21646 17.4543 7.7334 14.9117 7.7334C11.4954 7.7334 8.64853 10.353 8.31906 13.6787C7.69933 13.7359 7.10456 13.9846 6.62973 14.3958C4.78803 15.9878 4.59926 17.3206 4.75886 18.3536C3.28583 19.4262 2.43556 21.1158 2.46799 22.946C2.49879 24.7005 3.44006 26.2892 4.83843 27.3H2.66726C2.35623 27.3 2.10376 27.5523 2.10376 27.8633C2.10376 28.1743 2.35623 28.4266 2.66726 28.4266L10.0117 28.4263Z"
          fill="#F47B3D"/>
    <path d="M48.4162 36.0925C46.5839 36.9706 45.3374 37.983 44.7104 39.1023C43.9012 40.5459 44.9788 41.9249 45.9291 43.1415C46.7409 44.1806 47.5807 45.2555 47.3851 46.3263C47.2281 47.1887 46.3949 48.0845 44.909 48.9891C44.597 49.179 44.5485 49.6275 44.8145 49.8793C44.9965 50.0515 45.2809 50.0823 45.4944 49.9511C47.292 48.8573 48.2725 47.7375 48.493 46.5286C48.7791 44.9601 47.7363 43.6255 46.8165 42.4481C45.8421 41.2002 45.2805 40.3898 45.693 39.653C46.1972 38.7532 47.3067 37.8733 48.9025 37.1085C49.183 36.9741 49.3017 36.6376 49.1671 36.3569C49.0329 36.0771 48.6967 35.9577 48.4162 36.0925Z"
          fill="#F47B3D"/>
    <path d="M53.4863 34.9982C53.4195 34.6942 53.1183 34.4998 52.8164 34.5679C52.7632 34.5796 51.5041 34.857 49.9594 35.438C49.6685 35.5475 49.5212 35.8723 49.6307 36.1635C49.7156 36.3893 49.9303 36.5286 50.1582 36.5286C50.2243 36.5286 53.0443 35.6711 53.0567 35.6686C53.3603 35.6021 53.553 35.302 53.4863 34.9982Z"
          fill="#F47B3D"/>
    <path d="M53.8665 36.9866C53.6136 36.8048 53.2615 36.8646 53.0804 37.117C53.0491 37.1604 50.0291 41.5445 56.2502 46.8587C58.3101 48.6185 59.5013 50.3519 59.7922 52.0107C59.9166 52.7203 61.0289 52.5376 60.9022 51.8163C60.5648 49.8927 59.2458 47.9365 56.9824 46.0024C51.5822 41.3891 53.8964 37.9171 53.999 37.7694C54.1778 37.5167 54.119 37.1667 53.8665 36.9866Z"
          fill="#F47B3D"/>
    <path d="M24.6554 16.5931C24.115 16.2737 23.5221 16.0711 22.8933 15.9911C20.4013 15.681 18.1104 17.4411 17.7938 19.9226C17.641 21.121 17.9655 22.3075 18.707 23.2641C21.1276 26.3873 26.344 25.0158 26.8473 21.0638C26.9201 20.4959 26.8852 19.9293 26.7447 19.3805C26.45 18.2215 25.6891 17.2058 24.6554 16.5931ZM25.6987 20.9166C25.4399 22.6311 23.8875 24.127 21.8883 23.8771C20.9734 23.7623 20.1598 23.2991 19.5974 22.5737C19.04 21.8553 18.7966 20.9644 18.911 20.0651C19.2703 17.2383 22.9159 16.0875 24.85 18.1847C25.6004 18.9983 25.8386 19.9893 25.6987 20.9166Z"
          fill="#F47B3D"/>
    <path d="M19.3371 51.1594C19.0375 51.0831 18.7283 51.2606 18.6494 51.5612L17.9245 54.3236C17.8237 54.7102 17.6671 55.0815 17.4893 55.3813L13.4704 60.7883C13.4029 60.7344 9.9433 58.2905 9.9433 58.2905L14.2303 52.6956C14.2926 52.6147 14.3318 52.5183 14.3435 52.4168L15.1375 45.4506C15.1723 45.1415 14.9504 44.8624 14.6412 44.8272C14.3386 44.7947 14.0532 45.0138 14.0178 45.3228L13.2415 52.134L8.69263 58.0702C8.6903 58.0733 8.6896 58.077 8.68703 58.0803C8.6854 58.0826 8.6826 58.0835 8.68096 58.0861L6.255 61.4888C6.1675 61.6111 6.13273 61.7627 6.1584 61.9104C6.18336 62.0584 6.26666 62.19 6.3894 62.2763L13.2389 67.097C13.3374 67.1663 13.4503 67.1996 13.5623 67.1996C13.7382 67.1996 14.2891 66.5878 14.2891 66.5878C14.953 65.6575 15.2122 64.5259 15.0202 63.4014C14.9077 62.7434 14.645 62.1363 14.2623 61.6115L18.424 56.0076C18.6882 55.5696 18.8867 55.0987 19.0144 54.6083L19.7386 51.8468C19.8182 51.5462 19.6378 51.2382 19.3371 51.1594ZM13.4279 65.8531L7.50146 61.6818L9.2734 59.1965L12.618 61.5504C13.3094 62.0371 13.7683 62.7621 13.9095 63.5916C14.0451 64.3856 13.874 65.1846 13.4279 65.8531Z"
          fill="#F47B3D"/>
    <path d="M30.9861 61.9668L28.0771 51.6353C27.994 51.3343 27.8778 51.0433 27.7318 50.7694L24.4147 44.6C24.5267 44.5377 24.6373 44.4705 24.7416 44.39C25.3039 43.9586 25.6621 43.3351 25.7508 42.6342C25.8387 41.9349 25.6474 41.2438 25.2118 40.6877L24.673 39.9999L25.7473 31.5595C26.119 28.6396 24.0346 25.9481 21.1014 25.5598C19.6612 25.3673 18.2311 25.7514 17.0808 26.6369C16.6932 26.9353 16.3577 27.2816 16.0707 27.6603C16.0502 27.629 15.3345 26.9617 14.8798 26.8984C12.5058 26.5648 10.2826 28.2196 9.94594 30.5909L9.44404 34.1222C9.39994 34.4302 9.6139 34.7153 9.9219 34.7592C10.2329 34.8014 10.5155 34.5886 10.5589 34.2806L11.0608 30.7494C11.3107 28.9921 12.9569 27.7657 14.7239 28.0145C14.8805 28.0362 15.2447 28.5173 15.2232 28.6697C15.2232 28.6697 15.0559 30.0022 15.03 30.2055L13.7287 39.1872C13.6835 39.5047 13.3864 39.725 13.0637 39.6814L11.1933 39.4191C10.834 39.3685 10.5162 39.1816 10.2992 38.8932C10.0848 38.608 9.99424 38.2576 10.0437 37.9055L10.3505 35.7467C10.3946 35.4389 10.1807 35.1535 9.87267 35.1097C9.56467 35.0691 9.27907 35.2802 9.23567 35.5882L8.92884 37.747C8.83597 38.3971 9.0035 39.0446 9.39877 39.5703C9.7973 40.1 10.3785 40.4423 11.0368 40.5344C11.0368 40.5344 13.0679 40.8135 13.1473 40.8135C13.3645 40.8135 13.5722 40.768 13.7661 40.6919C13.8596 42.2415 14.4644 43.7208 15.5028 44.8658L22.2715 53.8981L24.6597 62.3455V66.4377C24.6597 66.7487 24.9122 67.001 25.2232 67.001H33.6167C33.9277 67.001 34.1802 66.7487 34.1802 66.4377C34.1802 64.3671 32.8415 62.6075 30.9861 61.9668ZM24.6329 42.493C24.5822 42.893 24.3774 43.2495 24.0558 43.4964C23.3932 44.0041 22.436 43.8842 21.925 43.2269L18.2528 38.521C17.9339 38.1117 17.7943 37.6035 17.8599 37.0902L18.2178 34.2813C18.7613 34.0797 20.0308 33.7507 21.0531 34.5529L20.792 36.6014C20.7731 36.7507 20.8146 36.9014 20.9075 37.02L24.3253 41.3826C24.5741 41.6999 24.683 42.0945 24.6329 42.493ZM17.7675 27.5296C18.6789 26.8282 19.8089 26.5251 20.9532 26.6765C23.2739 26.9841 24.9231 29.1107 24.6298 31.4172L23.6963 38.7532L21.9393 36.5104L22.5914 31.3894C22.6311 31.0807 22.4122 30.7986 22.1038 30.7596C21.7988 30.7186 21.5134 30.9381 21.4742 31.2471L21.2089 33.3291C20.1865 32.791 19.1136 32.8769 18.3732 33.0612L18.6887 30.5851C18.7284 30.2764 18.5095 29.9943 18.201 29.9553C17.8965 29.914 17.6107 30.1338 17.5715 30.4428L16.7427 36.9474C16.7077 37.2192 16.7222 37.4876 16.7586 37.7519C16.0665 37.7083 15.5296 37.6129 15.1873 37.5342L16.1468 30.3511C16.2896 29.2264 16.8654 28.2242 17.7675 27.5296ZM16.3715 44.1497C15.226 42.8839 14.6985 41.1903 14.9241 39.5031L15.0373 38.6556C15.5123 38.7604 16.2343 38.874 17.1639 38.8976C17.228 39.0042 21.0363 43.9196 21.0363 43.9196C21.5564 44.5867 22.3387 44.9365 23.129 44.9365C23.1888 44.9365 26.7382 51.3018 26.7382 51.3018C26.8446 51.5011 26.9296 51.7139 26.9912 51.9374L29.7459 61.7197C29.646 61.7132 25.649 61.7045 25.649 61.7045L23.3269 53.491C23.3082 53.4242 16.3715 44.1497 16.3715 44.1497ZM25.7869 65.8742V62.8308H29.4463C31.2439 62.8308 32.7384 64.152 33.0098 65.8742H25.7869Z"
          fill="#F47B3D"/>
</svg>
