<svg width="21" height="21" viewBox="0 0 21 21" fill="none" xmlns="http://www.w3.org/2000/svg">
    <path d="M19.6875 18.9617C20.0781 19.3132 20.0781 19.8992 19.6875 20.2507C19.5312 20.446 19.2969 20.5242 19.0625 20.5242C18.7891 20.5242 18.5547 20.446 18.3984 20.2507L13.1641 15.0164C11.7578 16.1492 10 16.7742 8.125 16.7742C3.63281 16.7742 0 13.1414 0 8.64917C0 4.19604 3.63281 0.52417 8.125 0.52417C12.5781 0.52417 16.25 4.19604 16.25 8.64917C16.25 10.5632 15.5859 12.321 14.4531 13.7273L19.6875 18.9617ZM1.875 8.64917C1.875 12.1257 4.64844 14.8992 8.125 14.8992C11.5625 14.8992 14.375 12.1257 14.375 8.64917C14.375 5.21167 11.5625 2.39917 8.125 2.39917C4.64844 2.39917 1.875 5.21167 1.875 8.64917Z"
          fill="#F47B3D"/>
</svg>
