<svg width="12" height="13" viewBox="0 0 12 13" fill="none" xmlns="http://www.w3.org/2000/svg">
    <path d="M8.25 6.5C8.25 7.01562 8.22656 7.51562 8.17969 8H3.82031C3.77344 7.51562 3.75 7.01562 3.75 6.5C3.75 5.98438 3.77344 5.48438 3.82031 5H8.17969C8.22656 5.48438 8.25 5.98438 8.25 6.5ZM8.92969 5H11.8125C11.9375 5.48438 12 5.98438 12 6.5C12 7.01562 11.9375 7.51562 11.8125 8H8.92969C8.97656 7.51562 9 7.01562 9 6.5C9 5.98438 8.97656 5.48438 8.92969 5ZM11.5547 4.25H8.83594C8.58594 2.71875 8.14844 1.53125 7.52344 0.6875C8.46094 0.953125 9.28125 1.39062 9.98438 2C10.6719 2.625 11.1953 3.375 11.5547 4.25ZM8.0625 4.25H3.9375C4.07812 3.39062 4.28906 2.64844 4.57031 2.02344C4.82031 1.47656 5.07812 1.07813 5.34375 0.828125C5.60938 0.59375 5.82812 0.484375 6 0.5C6.17188 0.484375 6.39062 0.59375 6.65625 0.828125C6.92188 1.07813 7.17969 1.47656 7.42969 2.02344C7.71094 2.64844 7.92188 3.39062 8.0625 4.25ZM3.16406 4.25H0.445312C0.804688 3.375 1.32812 2.625 2.01562 2C2.71875 1.39062 3.53906 0.953125 4.47656 0.6875C3.85156 1.53125 3.41406 2.71875 3.16406 4.25ZM0.1875 5H3.07031C3.02344 5.48438 3 5.98438 3 6.5C3 7.01562 3.02344 7.51562 3.07031 8H0.1875C0.0625 7.51562 0 7.01562 0 6.5C0 5.98438 0.0625 5.48438 0.1875 5ZM4.57031 10.9766C4.28906 10.3516 4.07812 9.60938 3.9375 8.75H8.0625C7.92188 9.60938 7.71094 10.3516 7.42969 10.9766C7.17969 11.5234 6.92188 11.9219 6.65625 12.1719C6.39062 12.4062 6.17188 12.5156 6 12.5C5.82812 12.5156 5.60938 12.4062 5.34375 12.1719C5.07812 11.9219 4.82031 11.5234 4.57031 10.9766ZM3.16406 8.75C3.41406 10.2812 3.85156 11.4688 4.47656 12.3125C3.53906 12.0469 2.71875 11.6094 2.01562 11C1.32812 10.375 0.804688 9.625 0.445312 8.75H3.16406ZM11.5547 8.75C11.1953 9.625 10.6719 10.375 9.98438 11C9.28125 11.6094 8.46875 12.0469 7.54688 12.3125C8.15625 11.4688 8.58594 10.2812 8.83594 8.75H11.5547Z"
          fill="#F47B3D"/>
</svg>
