<svg width="100" height="100" viewBox="0 0 100 100" fill="none" xmlns="http://www.w3.org/2000/svg">
<g clip-path="url(#clip0_2263_41512)">
<path d="M99.1601 73.2497C95.6011 66.8226 80.0144 62.7293 66.2512 61.9531C65.0073 60.6214 63.7447 59.2207 62.4503 57.7481C50.6221 44.2241 45.8323 24.5707 44.0435 14.1593C43.8308 11.9531 43.5969 10.1191 43.4002 8.75286C43.2407 7.66573 42.9058 5.39844 40.5482 5.39844C39.7933 5.39844 39.065 5.72272 38.5467 6.29951C37.7067 7.25905 37.8317 8.29036 37.9805 9.48115C38.148 10.8474 38.4005 12.6761 38.7593 14.7626C39.7667 25.3336 40.2425 45.4601 32.1063 61.4481C31.2584 63.1147 30.4131 64.7148 29.5732 66.2405C14.3481 70.6688 2.06271 78.5657 0.263233 85.1151C-0.387981 87.486 0.178177 89.7587 1.8607 91.5183C3.81966 93.5649 6.13214 94.6016 8.73434 94.6016C15.9376 94.6016 24.1482 86.5797 33.1376 70.7671C37.1406 69.7145 41.1143 68.9809 44.9552 68.5928C46.4516 68.4413 48.8731 68.125 50.3616 67.8964C54.4629 67.2638 59.1038 67.0087 63.8723 67.1655C74.9084 78.6375 83.9324 84.4532 90.6944 84.4532C94.3252 84.4506 97.3314 82.6803 99.1548 79.4695C100.277 77.4813 100.282 75.2698 99.1601 73.2497ZM8.73168 89.2855C7.60468 89.2855 6.64248 88.8283 5.69888 87.8422C5.31347 87.4409 5.22841 87.0953 5.38789 86.5265C6.31554 83.1535 14.1089 77.3723 25.4985 73.1753C19.0634 83.3289 12.9048 89.2855 8.73168 89.2855ZM49.5456 62.6495C48.1315 62.8675 45.835 63.1652 44.4156 63.314C41.8347 63.5692 39.1819 63.9759 36.5053 64.5234C36.617 64.3055 36.7286 64.0848 36.8402 63.8642C40.8299 56.0257 43.3019 46.627 44.2162 35.854C47.8763 46.098 52.6501 54.6196 58.4473 61.2487C58.6174 61.4454 58.7955 61.6448 58.9656 61.8468C55.6191 61.9265 52.4614 62.2003 49.5456 62.6495ZM94.5193 76.8593C93.6368 78.4222 92.3822 79.1478 90.5827 79.1478C86.3565 79.1478 79.855 75.1475 72.0749 67.8114C84.1158 69.3238 92.9324 72.9679 94.5139 75.8253C94.7425 76.24 94.7425 76.4606 94.5193 76.8593Z" fill="#E5252A"/>
</g>
<defs>
<clipPath id="clip0_2263_41512">
<rect width="100" height="100" fill="white"/>
</clipPath>
</defs>
</svg>
