<svg width="80" height="80" viewBox="0 0 80 80" fill="none" xmlns="http://www.w3.org/2000/svg">
<g id="play-button (2) 1" clip-path="url(#clip0_339_10137)">
<g id="Group">
<path id="Vector" d="M52.1949 38.436L35.5831 26.3605C34.9735 25.9186 34.1642 25.852 33.496 26.1954C32.8225 26.5362 32.4019 27.2284 32.4019 27.9764V52.1194C32.4019 52.8754 32.8225 53.5649 33.496 53.9057C33.7808 54.0494 34.0923 54.1213 34.4064 54.1213C34.8164 54.1213 35.2317 53.9909 35.5831 53.7326L52.1949 41.6678C52.7193 41.2818 53.0255 40.6855 53.0255 40.0519C53.0281 39.4076 52.714 38.814 52.1949 38.436Z" fill="white"/>
<path id="Vector_2" d="M40.0013 0.00534058C17.9056 0.00534058 0 17.9109 0 40.0067C0 62.0945 17.9056 79.9947 40.0013 79.9947C62.0918 79.9947 80 62.0918 80 40.0067C80.0027 17.9109 62.0918 0.00534058 40.0013 0.00534058ZM40.0013 73.3207C21.6006 73.3207 6.68197 58.4101 6.68197 40.0067C6.68197 21.6113 21.6006 6.68199 40.0013 6.68199C58.3994 6.68199 73.3154 21.6086 73.3154 40.0067C73.318 58.4101 58.3994 73.3207 40.0013 73.3207Z" fill="white"/>
</g>
</g>
<defs>
<clipPath id="clip0_339_10137">
<rect width="80" height="80" fill="white"/>
</clipPath>
</defs>
</svg>
