<svg width="44" height="44" viewBox="0 0 44 44" fill="none" xmlns="http://www.w3.org/2000/svg">
<path d="M22.0005 43.0938C33.6502 43.0938 43.0942 33.6498 43.0942 22C43.0942 10.3502 33.6502 0.90625 22.0005 0.90625C10.3507 0.90625 0.906738 10.3502 0.906738 22C0.906738 33.6498 10.3507 43.0938 22.0005 43.0938Z" fill="#F24646"/>
<path d="M17.5187 31.4955L32.4193 22.8925C32.5755 22.8022 32.7052 22.6723 32.7954 22.516C32.8856 22.3597 32.933 22.1824 32.933 22.0019C32.933 21.8214 32.8856 21.6442 32.7954 21.4878C32.7052 21.3315 32.5755 21.2016 32.4193 21.1113L17.5187 12.5074C17.3622 12.4178 17.1849 12.3708 17.0046 12.3711C16.8243 12.3714 16.6472 12.419 16.491 12.5091C16.3348 12.5992 16.2049 12.7287 16.1144 12.8847C16.0239 13.0407 15.9759 13.2177 15.9751 13.398V30.6044C15.9758 30.7848 16.0238 30.9618 16.1142 31.1179C16.2047 31.2739 16.3345 31.4035 16.4908 31.4936C16.647 31.5838 16.8241 31.6315 17.0045 31.6318C17.1849 31.6321 17.3622 31.5851 17.5187 31.4955Z" fill="#FFFCEE"/>
</svg>
