<svg width="58" height="58" viewBox="0 0 58 58" fill="none" xmlns="http://www.w3.org/2000/svg">
<path d="M29.001 57.125C44.534 57.125 57.126 44.533 57.126 29C57.126 13.467 44.534 0.875 29.001 0.875C13.468 0.875 0.875977 13.467 0.875977 29C0.875977 44.533 13.468 57.125 29.001 57.125Z" fill="#F24646"/>
<path d="M23.0249 41.6594L42.8924 30.1887C43.1007 30.0683 43.2736 29.8951 43.3939 29.6867C43.5141 29.4782 43.5774 29.2419 43.5774 29.0012C43.5774 28.7606 43.5141 28.5242 43.3939 28.3158C43.2736 28.1074 43.1007 27.9342 42.8924 27.8137L23.0249 16.3419C22.8163 16.2224 22.5799 16.1598 22.3395 16.1602C22.099 16.1606 21.8629 16.224 21.6546 16.3442C21.4464 16.4643 21.2732 16.637 21.1525 16.845C21.0319 17.0529 20.9678 17.2889 20.9668 17.5294V40.4712C20.9677 40.7117 21.0317 40.9478 21.1523 41.1558C21.273 41.3639 21.4461 41.5366 21.6543 41.6569C21.8626 41.7771 22.0988 41.8406 22.3393 41.8411C22.5798 41.8415 22.8162 41.7788 23.0249 41.6594Z" fill="#FFFCEE"/>
</svg>
