<svg width="18" height="21" viewBox="0 0 18 21" fill="none" xmlns="http://www.w3.org/2000/svg">
    <path d="M9 10.5C6.26562 10.5 4 8.27344 4 5.5C4 2.76562 6.26562 0.5 9 0.5C11.7734 0.5 14 2.76562 14 5.5C14 8.27344 11.7734 10.5 9 10.5ZM9 1.75C6.96875 1.75 5.25 3.46875 5.25 5.5C5.25 7.57031 6.96875 9.25 9 9.25C11.0703 9.25 12.75 7.57031 12.75 5.5C12.75 3.46875 11.0703 1.75 9 1.75ZM7.04688 12.375H10.9922C14.7422 12.375 17.75 15.4219 17.75 19.1719C17.75 19.9141 17.1641 20.5 16.4219 20.5H1.61719C0.875 20.5 0.25 19.9141 0.25 19.1719C0.25 15.4219 3.29688 12.375 7.04688 12.375ZM1.61719 19.25H16.4219C16.4609 19.25 16.5 19.2109 16.5 19.1719C16.5 16.125 14.0391 13.625 10.9922 13.625H7.04688C4 13.625 1.5 16.125 1.5 19.1719C1.5 19.2109 1.57812 19.25 1.61719 19.25Z"
          fill="black"/>
</svg>
